<?xml version="1.0" encoding="UTF-8"?>
<!DOCTYPE svg PUBLIC "-//W3C//DTD SVG 1.1//EN" "http://www.w3.org/Graphics/SVG/1.1/DTD/svg11.dtd">
<svg xmlns="http://www.w3.org/2000/svg" version="1.1" width="1024px" height="1024px" style="shape-rendering:geometricPrecision; text-rendering:geometricPrecision; image-rendering:optimizeQuality; fill-rule:evenodd; clip-rule:evenodd" xmlns:xlink="http://www.w3.org/1999/xlink">
<g><path style="opacity:0.941" fill="#060606" d="M 498.5,-0.5 C 504.833,-0.5 511.167,-0.5 517.5,-0.5C 484.887,57.7652 452.22,116.098 419.5,174.5C 423.066,178.571 426.9,182.571 431,186.5C 434.574,192.055 437.074,198.055 438.5,204.5C 439.207,207.786 439.54,211.119 439.5,214.5C 439.667,243.502 439.5,272.502 439,301.5C 437.961,302.244 437.461,303.244 437.5,304.5C 423.803,305.817 410.137,305.817 396.5,304.5C 395.878,303.373 395.045,302.373 394,301.5C 393.667,274.833 393.333,248.167 393,221.5C 392.283,222.044 391.783,222.711 391.5,223.5C 391.167,224.167 390.833,224.833 390.5,225.5C 384.259,236.982 377.759,248.316 371,259.5C 370.667,272.833 370.333,286.167 370,299.5C 369.315,302.057 367.815,303.891 365.5,305C 358.833,305.333 352.167,305.667 345.5,306C 314.495,361.003 283.495,416.003 252.5,471C 350.833,471.333 449.167,471.667 547.5,472C 548.554,473.388 548.72,474.888 548,476.5C 542.975,482.691 538.142,489.024 533.5,495.5C 534.325,496.386 535.325,496.719 536.5,496.5C 541.332,497.4 546.332,498.066 551.5,498.5C 572.718,508.553 586.551,524.886 593,547.5C 593.667,553.833 593.667,560.167 593,566.5C 592.55,568.519 591.717,570.352 590.5,572C 592.286,572.785 593.786,573.951 595,575.5C 606.089,590.682 616.423,606.349 626,622.5C 722.726,540.418 819.226,458.252 915.5,376C 817.833,375.667 720.167,375.333 622.5,375C 621.465,373.493 621.632,371.993 623,370.5C 629.43,362.264 635.597,353.931 641.5,345.5C 642.043,345.44 642.376,345.107 642.5,344.5C 631.186,343.501 619.853,343.168 608.5,343.5C 605.909,342.746 604.076,341.079 603,338.5C 602.333,328.5 602.333,318.5 603,308.5C 603.948,306.43 605.448,304.93 607.5,304C 621.167,303.667 634.833,303.333 648.5,303C 653.883,301.463 656.216,297.963 655.5,292.5C 637.786,301.208 620.453,300.375 603.5,290C 595.147,282.455 589.48,273.288 586.5,262.5C 586.192,258.64 585.525,254.974 584.5,251.5C 584.333,237.163 584.5,222.829 585,208.5C 589.249,186.086 602.416,172.42 624.5,167.5C 630.203,167.375 635.87,167.708 641.5,168.5C 646.691,169.62 651.524,171.62 656,174.5C 657.174,173.456 658.341,172.456 659.5,171.5C 672.455,170.371 685.455,170.204 698.5,171C 699.373,172.045 700.373,172.878 701.5,173.5C 701.833,174.167 702.167,174.833 702.5,175.5C 702.333,204.502 702.5,233.502 703,262.5C 703.717,261.956 704.217,261.289 704.5,260.5C 710.494,252.665 716.327,244.665 722,236.5C 722.333,216.167 722.667,195.833 723,175.5C 724.5,174 726,172.5 727.5,171C 739.5,170.333 751.5,170.333 763.5,171C 765.01,171.85 766.51,172.683 768,173.5C 811.279,115.836 854.112,57.8358 896.5,-0.5C 901.833,-0.5 907.167,-0.5 912.5,-0.5C 911.935,6.29732 909.435,12.2973 905,17.5C 867.974,67.0257 831.141,116.692 794.5,166.5C 818.539,167.59 834.039,179.59 841,202.5C 841.333,193.5 841.667,184.5 842,175.5C 843.167,173 845,171.167 847.5,170C 858.167,169.333 868.833,169.333 879.5,170C 880.416,170.374 881.25,170.874 882,171.5C 892.551,166.068 903.051,166.235 913.5,172C 915,173.5 916.5,175 918,176.5C 925.802,168.235 935.302,165.401 946.5,168C 962.786,173.636 971.619,185.136 973,202.5C 973.986,235.919 973.652,269.252 972,302.5C 970.786,304.049 969.286,305.215 967.5,306C 956.167,306.667 944.833,306.667 933.5,306C 931,304.833 929.167,303 928,300.5C 927.167,303.333 925.333,305.167 922.5,306C 912.167,306.667 901.833,306.667 891.5,306C 889,304.833 887.167,303 886,300.5C 885.167,303.333 883.333,305.167 880.5,306C 869.5,306.667 858.5,306.667 847.5,306C 844.667,305.167 842.833,303.333 842,300.5C 841.667,280.167 841.333,259.833 841,239.5C 840.097,240.701 838.931,241.535 837.5,242C 824.833,242.667 812.167,242.667 799.5,242C 797,240.833 795.167,239 794,236.5C 793.758,230.116 793.092,223.782 792,217.5C 786.284,211.635 780.284,211.302 774,216.5C 773.178,218.788 772.511,221.122 772,223.5C 771.667,249.167 771.333,274.833 771,300.5C 770.167,303.333 768.333,305.167 765.5,306C 752.072,306.962 738.739,306.629 725.5,305C 723.951,303.786 722.785,302.286 722,300.5C 721.667,289.167 721.333,277.833 721,266.5C 715.333,274.167 709.667,281.833 704,289.5C 705.046,318.456 691.546,336.623 663.5,344C 660.359,348.641 657.026,353.141 653.5,357.5C 741.828,358.822 830.162,359.656 918.5,360C 929.655,364.144 933.488,371.978 930,383.5C 927.925,387.579 925.092,391.079 921.5,394C 825.517,474.656 730.184,555.989 635.5,638C 637.437,643.941 640.937,648.774 646,652.5C 652.39,643.033 661.223,639.866 672.5,643C 677.525,644.689 681.359,647.856 684,652.5C 685.202,655.774 686.202,659.107 687,662.5C 687.61,672.571 687.276,682.571 686,692.5C 709.378,707.21 726.211,727.377 736.5,753C 743.167,753.667 749.833,754.333 756.5,755C 758.587,755.792 760.421,756.959 762,758.5C 762.565,734.952 774.731,724.452 798.5,727C 842.167,726.333 885.833,726.333 929.5,727C 935.053,727.599 940.386,728.933 945.5,731C 947.414,732.413 948.747,734.247 949.5,736.5C 953.53,738.363 956.363,741.363 958,745.5C 959.299,819.831 959.965,894.164 960,968.5C 959.148,979.013 953.648,985.513 943.5,988C 903.167,988.59 862.834,989.09 822.5,989.5C 807.878,988.699 793.211,988.199 778.5,988C 776.579,987.64 774.912,986.806 773.5,985.5C 772.5,986 771.5,986.5 770.5,987C 736.177,988.43 701.844,988.763 667.5,988C 659.506,987.836 654.172,984.002 651.5,976.5C 647.534,979.268 643.201,981.268 638.5,982.5C 630.499,990.845 620.833,996.678 609.5,1000C 599.786,1000.78 590.12,1000.61 580.5,999.5C 578.095,998.232 575.428,997.565 572.5,997.5C 558.686,991.014 545.686,992.514 533.5,1002C 523.802,1003.77 514.135,1005.61 504.5,1007.5C 489.841,1008.56 475.174,1008.56 460.5,1007.5C 456.818,1007.67 453.152,1007.5 449.5,1007C 432.341,1001.26 416.008,993.589 400.5,984C 395.227,978.882 389.561,974.382 383.5,970.5C 373.204,959.253 364.371,946.92 357,933.5C 352.389,918.167 346.889,903.167 340.5,888.5C 300.829,921.51 261.495,954.844 222.5,988.5C 221.167,989.167 220.167,990.167 219.5,991.5C 212.425,994.527 206.758,999.193 202.5,1005.5C 195.274,1011.27 188.274,1017.27 181.5,1023.5C 173.167,1023.5 164.833,1023.5 156.5,1023.5C 163.949,1016.22 171.616,1009.05 179.5,1002C 230.821,959.701 281.654,916.535 332,872.5C 330.005,866.195 326.672,860.529 322,855.5C 316.049,841.598 309.049,828.265 301,815.5C 250.954,885.027 200.787,954.36 150.5,1023.5C 145.167,1023.5 139.833,1023.5 134.5,1023.5C 134.338,1018.82 135.505,1014.48 138,1010.5C 188.578,941.677 238.911,872.677 289,803.5C 287.143,796.442 284.143,789.775 280,783.5C 271.869,761.577 267.703,738.911 267.5,715.5C 260.783,714.095 254.616,711.428 249,707.5C 246.184,702.039 243.184,696.705 240,691.5C 237.529,682.886 238.196,674.553 242,666.5C 245.833,662.667 249.667,658.833 253.5,655C 257.253,653.011 261.253,652.178 265.5,652.5C 267.436,626.305 277.269,603.638 295,584.5C 313.627,565.695 334.127,549.362 356.5,535.5C 355.321,522.007 359.655,510.507 369.5,501C 384.923,493.826 399.423,495.326 413,505.5C 432.246,497.521 452.246,492.855 473,491.5C 485.047,491.887 496.547,494.554 507.5,499.5C 511.833,497.041 515.166,493.541 517.5,489C 427.834,488.18 338.168,487.513 248.5,487C 237.761,482.015 234.261,473.849 238,462.5C 267.047,410.237 296.214,358.07 325.5,306C 323.956,304.414 322.789,302.58 322,300.5C 321.011,258.083 321.345,215.749 323,173.5C 324.214,171.951 325.714,170.785 327.5,170C 339.833,169.333 352.167,169.333 364.5,170C 366.344,171.182 368.177,172.349 370,173.5C 380.872,168.34 392.372,166.007 404.5,166.5C 436.099,110.968 467.432,55.3013 498.5,-0.5 Z M 376.5,213.5 C 377.043,213.56 377.376,213.893 377.5,214.5C 375.413,217.673 373.579,221.006 372,224.5C 371.083,219.732 372.583,216.065 376.5,213.5 Z M 383.5,970.5 C 381.5,970.5 379.5,970.5 377.5,970.5C 372.695,971.487 367.695,971.821 362.5,971.5C 355.352,972.492 348.019,972.825 340.5,972.5C 336.366,973.485 332.032,973.818 327.5,973.5C 324.038,974.482 320.371,974.815 316.5,974.5C 312.03,975.486 307.363,975.819 302.5,975.5C 302.631,976.239 302.464,976.906 302,977.5C 296.258,976.142 290.591,976.476 285,978.5C 283.751,976.008 282.584,976.175 281.5,979C 278.854,979.497 276.187,979.664 273.5,979.5C 269.057,980.801 264.391,981.468 259.5,981.5C 257.393,982.468 255.059,982.802 252.5,982.5C 250.393,983.468 248.059,983.802 245.5,983.5C 239.357,985.534 233.023,987.201 226.5,988.5C 225.791,989.404 224.791,989.737 223.5,989.5C 223.5,988.833 223.167,988.5 222.5,988.5C 261.495,954.844 300.829,921.51 340.5,888.5C 346.889,903.167 352.389,918.167 357,933.5C 364.371,946.92 373.204,959.253 383.5,970.5 Z M 222.5,988.5 C 223.167,988.5 223.5,988.833 223.5,989.5C 222.486,990.674 221.153,991.34 219.5,991.5C 220.167,990.167 221.167,989.167 222.5,988.5 Z"/></g>
<g><path style="opacity:1" fill="#f6d563" d="M 517.5,-0.5 C 643.833,-0.5 770.167,-0.5 896.5,-0.5C 854.112,57.8358 811.279,115.836 768,173.5C 766.51,172.683 765.01,171.85 763.5,171C 751.5,170.333 739.5,170.333 727.5,171C 726,172.5 724.5,174 723,175.5C 722.667,195.833 722.333,216.167 722,236.5C 716.327,244.665 710.494,252.665 704.5,260.5C 703.833,232.167 703.167,203.833 702.5,175.5C 702.167,174.833 701.833,174.167 701.5,173.5C 701.489,171.983 700.823,170.816 699.5,170C 686.5,169.333 673.5,169.333 660.5,170C 659.944,170.383 659.611,170.883 659.5,171.5C 658.341,172.456 657.174,173.456 656,174.5C 651.524,171.62 646.691,169.62 641.5,168.5C 638.474,166.981 635.141,166.315 631.5,166.5C 628.975,166.503 626.641,166.837 624.5,167.5C 602.416,172.42 589.249,186.086 585,208.5C 584.5,222.829 584.333,237.163 584.5,251.5C 584.116,255.489 584.783,259.155 586.5,262.5C 589.48,273.288 595.147,282.455 603.5,290C 620.453,300.375 637.786,301.208 655.5,292.5C 656.216,297.963 653.883,301.463 648.5,303C 634.833,303.333 621.167,303.667 607.5,304C 605.448,304.93 603.948,306.43 603,308.5C 602.333,318.5 602.333,328.5 603,338.5C 604.076,341.079 605.909,342.746 608.5,343.5C 619.5,344.167 630.5,344.833 641.5,345.5C 635.597,353.931 629.43,362.264 623,370.5C 621.632,371.993 621.465,373.493 622.5,375C 720.167,375.333 817.833,375.667 915.5,376C 819.226,458.252 722.726,540.418 626,622.5C 616.423,606.349 606.089,590.682 595,575.5C 593.786,573.951 592.286,572.785 590.5,572C 591.717,570.352 592.55,568.519 593,566.5C 593.667,560.167 593.667,553.833 593,547.5C 586.551,524.886 572.718,508.553 551.5,498.5C 550.737,497.732 549.737,497.232 548.5,497C 544.514,496.501 540.514,496.334 536.5,496.5C 535.325,496.719 534.325,496.386 533.5,495.5C 538.142,489.024 542.975,482.691 548,476.5C 548.72,474.888 548.554,473.388 547.5,472C 449.167,471.667 350.833,471.333 252.5,471C 283.495,416.003 314.495,361.003 345.5,306C 352.167,305.667 358.833,305.333 365.5,305C 367.815,303.891 369.315,302.057 370,299.5C 370.333,286.167 370.667,272.833 371,259.5C 377.759,248.316 384.259,236.982 390.5,225.5C 391.167,250.167 391.833,274.833 392.5,299.5C 392.369,302.367 393.703,304.033 396.5,304.5C 410.137,305.817 423.803,305.817 437.5,304.5C 439.727,303.599 440.727,301.933 440.5,299.5C 441.664,271.003 441.83,242.336 441,213.5C 440.943,210.149 440.109,207.149 438.5,204.5C 437.074,198.055 434.574,192.055 431,186.5C 426.9,182.571 423.066,178.571 419.5,174.5C 452.22,116.098 484.887,57.7652 517.5,-0.5 Z"/></g>
<g><path style="opacity:0.903" fill="#050505" d="M 135.5,129.5 C 147.838,129.333 160.171,129.5 172.5,130C 175.333,130.833 177.167,132.667 178,135.5C 178.667,190.167 178.667,244.833 178,299.5C 177.167,302.333 175.333,304.167 172.5,305C 160.5,305.667 148.5,305.667 136.5,305C 134.061,304.226 132.227,302.726 131,300.5C 113.444,311.248 95.944,311.082 78.5,300C 67.7227,290.948 61.2227,279.448 59,265.5C 58.8333,256 58.6667,246.5 58.5,237C 58.3921,225.787 58.8921,214.62 60,203.5C 68.3092,175.924 86.8092,163.757 115.5,167C 120.403,167.869 124.903,169.702 129,172.5C 129.333,160.167 129.667,147.833 130,135.5C 131.021,132.65 132.854,130.65 135.5,129.5 Z M 116.5,211.5 C 124.739,211.238 128.905,215.238 129,223.5C 129.879,234.55 129.546,245.55 128,256.5C 126.541,260.957 123.374,262.957 118.5,262.5C 111.114,262.613 107.614,258.946 108,251.5C 107.144,240.123 107.478,228.79 109,217.5C 110.354,213.924 112.854,211.924 116.5,211.5 Z"/></g>
<g><path style="opacity:1" fill="#d1d1d1" d="M 170.5,138.5 C 159.833,138.5 149.167,138.5 138.5,138.5C 138.5,152.833 138.5,167.167 138.5,181.5C 138.167,181.5 137.833,181.5 137.5,181.5C 137.5,166.833 137.5,152.167 137.5,137.5C 148.679,137.172 159.679,137.505 170.5,138.5 Z"/></g>
<g><path style="opacity:1" fill="#f4f4f4" d="M 170.5,138.5 C 170.5,191.5 170.5,244.5 170.5,297.5C 159.833,297.5 149.167,297.5 138.5,297.5C 138.666,290.825 138.5,284.158 138,277.5C 130.01,295.416 116.177,302.583 96.5,299C 78.6885,292.919 68.8552,280.419 67,261.5C 66.3333,244.833 66.3333,228.167 67,211.5C 72.7589,182.715 89.9256,171.215 118.5,177C 126.575,180.242 132.575,185.742 136.5,193.5C 136.987,194.473 137.487,195.473 138,196.5C 138.499,191.511 138.666,186.511 138.5,181.5C 138.5,167.167 138.5,152.833 138.5,138.5C 149.167,138.5 159.833,138.5 170.5,138.5 Z M 116.5,211.5 C 112.854,211.924 110.354,213.924 109,217.5C 107.478,228.79 107.144,240.123 108,251.5C 107.614,258.946 111.114,262.613 118.5,262.5C 123.374,262.957 126.541,260.957 128,256.5C 129.546,245.55 129.879,234.55 129,223.5C 128.905,215.238 124.739,211.238 116.5,211.5 Z"/></g>
<g><path style="opacity:1" fill="#af9847" d="M 624.5,167.5 C 626.641,166.837 628.975,166.503 631.5,166.5C 635.141,166.315 638.474,166.981 641.5,168.5C 635.87,167.708 630.203,167.375 624.5,167.5 Z"/></g>
<g><path style="opacity:0.861" fill="#070707" d="M 187.5,168.5 C 201.265,168.036 214.932,168.536 228.5,170C 230.617,171.731 232.117,173.898 233,176.5C 238.741,192.307 244.741,207.974 251,223.5C 256.667,207.167 262.333,190.833 268,174.5C 268.785,172.714 269.951,171.214 271.5,170C 285.406,168.369 299.406,168.036 313.5,169C 320.136,173.173 321.303,178.673 317,185.5C 298.197,237.577 279.197,289.577 260,341.5C 258.786,343.049 257.286,344.215 255.5,345C 242.5,345.667 229.5,345.667 216.5,345C 211.268,342.367 209.435,338.201 211,332.5C 216.131,318.941 220.964,305.275 225.5,291.5C 211.28,254.726 196.78,218.06 182,181.5C 180.592,175.662 182.425,171.329 187.5,168.5 Z"/></g>
<g><path style="opacity:1" fill="#0e0d0a" d="M 535.5,299.5 C 535.667,268.832 535.5,238.165 535,207.5C 533.893,206.288 533.393,206.621 533.5,208.5C 532.819,240.039 532.152,271.706 531.5,303.5C 530.244,303.461 529.244,303.961 528.5,305C 518.167,305.667 507.833,305.667 497.5,305C 495.185,303.891 493.685,302.057 493,299.5C 492.837,268.428 492.337,238.095 491.5,208.5C 490.819,240.039 490.152,271.706 489.5,303.5C 488.244,303.461 487.244,303.961 486.5,305C 475.167,305.667 463.833,305.667 452.5,305C 451.584,304.722 450.918,304.222 450.5,303.5C 449.511,260.876 449.178,218.209 449.5,175.5C 449.427,173.973 450.094,172.973 451.5,172.5C 462.449,171.545 473.449,171.211 484.5,171.5C 486.017,171.511 487.184,172.177 488,173.5C 493.963,168.687 500.797,167.187 508.5,169C 514.486,170.408 519.652,173.242 524,177.5C 536.725,166.369 550.225,165.535 564.5,175C 571.183,181.2 575.683,188.7 578,197.5C 578.667,231.5 578.667,265.5 578,299.5C 577.315,302.057 575.815,303.891 573.5,305C 562.167,305.667 550.833,305.667 539.5,305C 537.072,303.982 535.738,302.148 535.5,299.5 Z"/></g>
<g><path style="opacity:1" fill="#4d4320" d="M 701.5,173.5 C 700.373,172.878 699.373,172.045 698.5,171C 685.455,170.204 672.455,170.371 659.5,171.5C 659.611,170.883 659.944,170.383 660.5,170C 673.5,169.333 686.5,169.333 699.5,170C 700.823,170.816 701.489,171.983 701.5,173.5 Z"/></g>
<g><path style="opacity:1" fill="#473e1e" d="M 484.5,171.5 C 473.449,171.211 462.449,171.545 451.5,172.5C 451.611,171.883 451.944,171.383 452.5,171C 463.341,170.175 474.008,170.341 484.5,171.5 Z"/></g>
<g><path style="opacity:1" fill="#f4f4f4" d="M 624.5,174.5 C 641.554,172.559 654.388,178.892 663,193.5C 663.499,187.843 663.666,182.176 663.5,176.5C 674.167,176.5 684.833,176.5 695.5,176.5C 695.667,218.501 695.5,260.501 695,302.5C 690.962,319.539 680.462,330.372 663.5,335C 645.868,336.381 628.201,336.881 610.5,336.5C 610.5,327.833 610.5,319.167 610.5,310.5C 623.504,310.667 636.504,310.5 649.5,310C 656.882,308.951 661.382,304.784 663,297.5C 663.667,288.833 663.667,280.167 663,271.5C 658.513,281.319 651.013,287.486 640.5,290C 615.475,293.402 599.642,282.902 593,258.5C 591.414,242.879 591.081,227.213 592,211.5C 595.286,192.389 606.12,180.055 624.5,174.5 Z"/></g>
<g><path style="opacity:1" fill="#797979" d="M 224.5,177.5 C 212.988,177.172 201.654,177.505 190.5,178.5C 189.957,178.44 189.624,178.107 189.5,177.5C 201.327,176.176 212.993,176.176 224.5,177.5 Z"/></g>
<g><path style="opacity:1" fill="#f4f4f4" d="M 330.5,298.5 C 330.5,258.5 330.5,218.5 330.5,178.5C 340.833,178.5 351.167,178.5 361.5,178.5C 361.334,184.842 361.5,191.175 362,197.5C 362.513,196.473 363.013,195.473 363.5,194.5C 371.473,179.847 383.807,173.68 400.5,176C 418.079,179.913 428.579,190.746 432,208.5C 432.5,238.498 432.667,268.498 432.5,298.5C 421.5,298.5 410.5,298.5 399.5,298.5C 399.667,270.831 399.5,243.165 399,215.5C 393.589,205.884 385.422,202.384 374.5,205C 368.508,207.659 364.675,212.159 363,218.5C 362.5,245.165 362.333,271.831 362.5,298.5C 351.833,298.5 341.167,298.5 330.5,298.5 Z M 376.5,213.5 C 372.583,216.065 371.083,219.732 372,224.5C 373.579,221.006 375.413,217.673 377.5,214.5C 377.376,213.893 377.043,213.56 376.5,213.5 Z"/></g>
<g><path style="opacity:1" fill="#f3f3f3" d="M 456.5,298.5 C 456.5,258.5 456.5,218.5 456.5,178.5C 465.167,178.5 473.833,178.5 482.5,178.5C 482.334,184.509 482.501,190.509 483,196.5C 483.315,194.414 483.815,192.414 484.5,190.5C 490.232,175.973 500.232,172.14 514.5,179C 519.02,182.536 522.186,187.036 524,192.5C 529.831,177.501 540.331,172.668 555.5,178C 563.025,182.522 567.859,189.022 570,197.5C 570.5,231.165 570.667,264.832 570.5,298.5C 561.167,298.5 551.833,298.5 542.5,298.5C 542.667,267.498 542.5,236.498 542,205.5C 537.33,198.023 532.33,197.689 527,204.5C 526.5,235.832 526.333,267.165 526.5,298.5C 517.833,298.5 509.167,298.5 500.5,298.5C 500.667,267.498 500.5,236.498 500,205.5C 495.33,198.023 490.33,197.689 485,204.5C 484.5,235.832 484.333,267.165 484.5,298.5C 475.167,298.5 465.833,298.5 456.5,298.5 Z"/></g>
<g><path style="opacity:1" fill="#f4f4f4" d="M 730.5,178.5 C 740.833,178.5 751.167,178.5 761.5,178.5C 761.334,185.508 761.5,192.508 762,199.5C 763.039,198.756 763.539,197.756 763.5,196.5C 767.087,186.416 774.087,179.916 784.5,177C 811.323,172.163 827.823,182.996 834,209.5C 834.5,217.493 834.666,225.493 834.5,233.5C 823.5,233.5 812.5,233.5 801.5,233.5C 804.55,209.555 794.55,200.722 771.5,207C 767.334,210.165 764.834,214.332 764,219.5C 763.5,245.831 763.333,272.165 763.5,298.5C 752.5,298.5 741.5,298.5 730.5,298.5C 730.5,258.5 730.5,218.5 730.5,178.5 Z"/></g>
<g><path style="opacity:1" fill="#f3f3f3" d="M 850.5,298.5 C 850.5,258.5 850.5,218.5 850.5,178.5C 859.167,178.5 867.833,178.5 876.5,178.5C 876.334,184.509 876.501,190.509 877,196.5C 877.315,194.414 877.815,192.414 878.5,190.5C 884.232,175.973 894.232,172.14 908.5,179C 913.02,182.536 916.186,187.036 918,192.5C 923.831,177.501 934.331,172.668 949.5,178C 957.025,182.522 961.859,189.022 964,197.5C 964.5,231.165 964.667,264.832 964.5,298.5C 955.167,298.5 945.833,298.5 936.5,298.5C 936.667,267.498 936.5,236.498 936,205.5C 931.33,198.023 926.33,197.689 921,204.5C 920.5,235.832 920.333,267.165 920.5,298.5C 911.833,298.5 903.167,298.5 894.5,298.5C 894.667,267.498 894.5,236.498 894,205.5C 889.33,198.023 884.33,197.689 879,204.5C 878.5,235.832 878.333,267.165 878.5,298.5C 869.167,298.5 859.833,298.5 850.5,298.5 Z"/></g>
<g><path style="opacity:1" fill="#f3f3f3" d="M 253.5,336.5 C 241.988,336.828 230.654,336.495 219.5,335.5C 224.027,321.755 228.86,308.088 234,294.5C 234.667,292.5 234.667,290.5 234,288.5C 219.21,251.924 204.71,215.258 190.5,178.5C 201.654,177.505 212.988,177.172 224.5,177.5C 230.895,195.182 237.395,212.848 244,230.5C 247.112,238.616 249.446,246.949 251,255.5C 257.926,229.056 266.259,203.056 276,177.5C 287.438,176.18 298.938,176.18 310.5,177.5C 291.208,230.413 272.208,283.413 253.5,336.5 Z"/></g>
<g><path style="opacity:1" fill="#7d6c33" d="M 702.5,175.5 C 703.167,203.833 703.833,232.167 704.5,260.5C 704.217,261.289 703.717,261.956 703,262.5C 702.5,233.502 702.333,204.502 702.5,175.5 Z"/></g>
<g><path style="opacity:1" fill="#838383" d="M 730.5,178.5 C 740.987,177.506 751.654,177.172 762.5,177.5C 762.177,184.022 762.51,190.355 763.5,196.5C 763.539,197.756 763.039,198.756 762,199.5C 761.5,192.508 761.334,185.508 761.5,178.5C 751.167,178.5 740.833,178.5 730.5,178.5 Z"/></g>
<g><path style="opacity:1" fill="#7c7c7c" d="M 361.5,178.5 C 351.167,178.5 340.833,178.5 330.5,178.5C 330.5,218.5 330.5,258.5 330.5,298.5C 329.501,258.337 329.168,218.003 329.5,177.5C 340.346,177.172 351.013,177.506 361.5,178.5 Z"/></g>
<g><path style="opacity:1" fill="#3f3f3f" d="M 361.5,178.5 C 362.167,183.833 362.833,189.167 363.5,194.5C 363.013,195.473 362.513,196.473 362,197.5C 361.5,191.175 361.334,184.842 361.5,178.5 Z"/></g>
<g><path style="opacity:1" fill="#362e17" d="M 449.5,175.5 C 449.178,218.209 449.511,260.876 450.5,303.5C 449.883,303.389 449.383,303.056 449,302.5C 448.169,259.998 448.335,217.665 449.5,175.5 Z"/></g>
<g><path style="opacity:1" fill="#959595" d="M 482.5,178.5 C 473.833,178.5 465.167,178.5 456.5,178.5C 456.5,218.5 456.5,258.5 456.5,298.5C 455.501,258.337 455.168,218.003 455.5,177.5C 464.682,177.173 473.682,177.507 482.5,178.5 Z"/></g>
<g><path style="opacity:1" fill="#454545" d="M 482.5,178.5 C 483.167,182.5 483.833,186.5 484.5,190.5C 483.815,192.414 483.315,194.414 483,196.5C 482.501,190.509 482.334,184.509 482.5,178.5 Z"/></g>
<g><path style="opacity:1" fill="#959595" d="M 876.5,178.5 C 867.833,178.5 859.167,178.5 850.5,178.5C 850.5,218.5 850.5,258.5 850.5,298.5C 849.501,258.337 849.168,218.003 849.5,177.5C 858.682,177.173 867.682,177.507 876.5,178.5 Z"/></g>
<g><path style="opacity:1" fill="#454545" d="M 876.5,178.5 C 877.167,182.5 877.833,186.5 878.5,190.5C 877.815,192.414 877.315,194.414 877,196.5C 876.501,190.509 876.334,184.509 876.5,178.5 Z"/></g>
<g><path style="opacity:1" fill="#454545" d="M 137.5,181.5 C 137.833,181.5 138.167,181.5 138.5,181.5C 138.666,186.511 138.499,191.511 138,196.5C 137.487,195.473 136.987,194.473 136.5,193.5C 137.483,189.702 137.817,185.702 137.5,181.5 Z"/></g>
<g><path style="opacity:0.906" fill="#080808" d="M 111.5,203.5 C 123.724,200.978 132.224,205.312 137,216.5C 137.667,229.833 137.667,243.167 137,256.5C 133.628,268.28 125.795,273.113 113.5,271C 106.333,269.167 101.833,264.667 100,257.5C 99.3333,243.833 99.3333,230.167 100,216.5C 100.806,213.554 102.139,210.888 104,208.5C 106.479,206.686 108.979,205.019 111.5,203.5 Z M 116.5,211.5 C 112.854,211.924 110.354,213.924 109,217.5C 107.478,228.79 107.144,240.123 108,251.5C 107.614,258.946 111.114,262.613 118.5,262.5C 123.374,262.957 126.541,260.957 128,256.5C 129.546,245.55 129.879,234.55 129,223.5C 128.905,215.238 124.739,211.238 116.5,211.5 Z"/></g>
<g><path style="opacity:1" fill="#0a0a09" d="M 636.5,203.5 C 644.392,202.41 651.559,204.077 658,208.5C 659.861,210.888 661.194,213.554 662,216.5C 662.667,227.167 662.667,237.833 662,248.5C 657.751,259.878 649.585,264.378 637.5,262C 630.93,259.762 626.763,255.262 625,248.5C 624.333,237.833 624.333,227.167 625,216.5C 625.806,213.554 627.139,210.888 629,208.5C 631.479,206.686 633.979,205.019 636.5,203.5 Z"/></g>
<g><path style="opacity:1" fill="#362e17" d="M 491.5,208.5 C 491.667,239.835 491.5,271.168 491,302.5C 490.617,303.056 490.117,303.389 489.5,303.5C 490.152,271.706 490.819,240.039 491.5,208.5 Z"/></g>
<g><path style="opacity:1" fill="#362e17" d="M 533.5,208.5 C 533.5,238.833 533.5,269.167 533.5,299.5C 533.771,301.38 533.104,302.713 531.5,303.5C 532.152,271.706 532.819,240.039 533.5,208.5 Z"/></g>
<g><path style="opacity:1" fill="#827136" d="M 535.5,299.5 C 534.833,299.5 534.167,299.5 533.5,299.5C 533.5,269.167 533.5,238.833 533.5,208.5C 533.393,206.621 533.893,206.288 535,207.5C 535.5,238.165 535.667,268.832 535.5,299.5 Z"/></g>
<g><path style="opacity:1" fill="#ebcb5f" d="M 639.5,210.5 C 646.74,209.369 651.906,212.035 655,218.5C 655.667,227.833 655.667,237.167 655,246.5C 653.442,252.624 649.442,255.624 643,255.5C 636.977,255.328 633.31,252.328 632,246.5C 631.333,237.167 631.333,227.833 632,218.5C 633.38,214.625 635.88,211.958 639.5,210.5 Z"/></g>
<g><path style="opacity:1" fill="#564b24" d="M 439.5,214.5 C 440.498,242.662 440.831,270.995 440.5,299.5C 440.727,301.933 439.727,303.599 437.5,304.5C 437.461,303.244 437.961,302.244 439,301.5C 439.5,272.502 439.667,243.502 439.5,214.5 Z"/></g>
<g><path style="opacity:1" fill="#c5aa50" d="M 438.5,204.5 C 440.109,207.149 440.943,210.149 441,213.5C 441.83,242.336 441.664,271.003 440.5,299.5C 440.831,270.995 440.498,242.662 439.5,214.5C 439.54,211.119 439.207,207.786 438.5,204.5 Z"/></g>
<g><path style="opacity:1" fill="#473e1e" d="M 396.5,304.5 C 393.703,304.033 392.369,302.367 392.5,299.5C 392.831,273.995 392.498,248.661 391.5,223.5C 391.783,222.711 392.283,222.044 393,221.5C 393.333,248.167 393.667,274.833 394,301.5C 395.045,302.373 395.878,303.373 396.5,304.5 Z"/></g>
<g><path style="opacity:1" fill="#baa14b" d="M 391.5,223.5 C 392.498,248.661 392.831,273.995 392.5,299.5C 391.833,274.833 391.167,250.167 390.5,225.5C 390.833,224.833 391.167,224.167 391.5,223.5 Z"/></g>
<g><path style="opacity:1" fill="#8f7c3b" d="M 584.5,251.5 C 585.525,254.974 586.192,258.64 586.5,262.5C 584.783,259.155 584.116,255.489 584.5,251.5 Z"/></g>
<g><path style="opacity:1" fill="#5c5c5c" d="M 219.5,335.5 C 230.654,336.495 241.988,336.828 253.5,336.5C 241.993,337.824 230.327,337.824 218.5,336.5C 218.624,335.893 218.957,335.56 219.5,335.5 Z"/></g>
<g><path style="opacity:1" fill="#534822" d="M 608.5,343.5 C 619.853,343.168 631.186,343.501 642.5,344.5C 642.376,345.107 642.043,345.44 641.5,345.5C 630.5,344.833 619.5,344.167 608.5,343.5 Z"/></g>
<g><path style="opacity:1" fill="#a58e42" d="M 536.5,496.5 C 540.514,496.334 544.514,496.501 548.5,497C 549.737,497.232 550.737,497.732 551.5,498.5C 546.332,498.066 541.332,497.4 536.5,496.5 Z"/></g>
<g><path style="opacity:1" fill="#acf3ef" d="M 493.5,520.5 C 492.883,520.389 492.383,520.056 492,519.5C 490.333,521.833 488.667,524.167 487,526.5C 484.462,542.475 487.796,557.141 497,570.5C 498.441,571.87 500.108,572.87 502,573.5C 502.658,571.892 502.158,570.725 500.5,570C 501.745,569.209 503.078,568.709 504.5,568.5C 507.479,570.812 510.146,573.479 512.5,576.5C 509.171,579.33 506.838,582.83 505.5,587C 506.289,595.131 506.789,603.298 507,611.5C 509.991,620.825 516.324,626.159 526,627.5C 528.829,626.797 531.662,626.63 534.5,627C 540.38,634.627 548.047,637.294 557.5,635C 558.931,634.535 560.097,633.701 561,632.5C 561.497,629.854 561.664,627.187 561.5,624.5C 564.785,624.731 567.285,623.397 569,620.5C 569.667,615.833 569.667,611.167 569,606.5C 567.829,600.487 566.663,594.487 565.5,588.5C 568.568,588.453 571.568,587.953 574.5,587C 576.911,585.045 579.411,583.211 582,581.5C 582.75,582.126 583.584,582.626 584.5,583C 592.123,593.746 599.623,604.58 607,615.5C 613.746,628.659 620.746,641.659 628,654.5C 634.832,661.667 640.499,669.667 645,678.5C 646.399,681.363 647.399,684.363 648,687.5C 660.833,694.002 673.333,701.169 685.5,709C 722.592,739.409 737.592,778.576 730.5,826.5C 728.872,836.088 726.039,845.422 722,854.5C 712.445,867.388 700.945,878.221 687.5,887C 679.977,891.261 672.311,895.261 664.5,899C 645.535,912.822 625.869,925.655 605.5,937.5C 602.885,937.316 600.719,936.316 599,934.5C 598.5,935 598,935.5 597.5,936C 592.316,936.174 587.316,936.674 582.5,937.5C 579.943,938.188 577.609,939.354 575.5,941C 571.467,945.368 567.134,949.368 562.5,953C 558.099,957.211 554.766,962.044 552.5,967.5C 550.694,969.089 549.361,971.089 548.5,973.5C 532.678,976.66 517.011,976.16 501.5,972C 476.214,962.145 452.548,949.478 430.5,934C 423,927.167 415.833,920 409,912.5C 403.195,900.687 396.528,889.353 389,878.5C 386.275,871.384 383.275,864.384 380,857.5C 379.654,854.424 378.988,851.424 378,848.5C 370.991,838.148 365.324,827.148 361,815.5C 353.193,805.557 347.193,794.557 343,782.5C 333.139,768.766 322.806,755.433 312,742.5C 308.87,717.159 305.537,691.825 302,666.5C 300.284,644.972 304.284,624.639 314,605.5C 321.354,594.647 328.854,583.814 336.5,573C 345.088,566.021 353.755,559.021 362.5,552C 364.464,550.549 365.797,548.716 366.5,546.5C 378.925,539.26 391.259,531.76 403.5,524C 425.238,514.975 447.738,508.808 471,505.5C 481.077,505.421 490.577,507.588 499.5,512C 496.605,514.322 494.605,517.155 493.5,520.5 Z"/></g>
<g><path style="opacity:1" fill="#f9f9f9" d="M 522.5,570.5 C 524.925,568.83 525.091,566.83 523,564.5C 521.96,561.96 520.126,560.293 517.5,559.5C 516.466,553.629 513.299,549.296 508,546.5C 507.439,544.275 506.439,542.275 505,540.5C 504.833,538 504.667,535.5 504.5,533C 504.568,530.05 505.234,527.383 506.5,525C 505.692,524.692 505.025,524.192 504.5,523.5C 505.246,522.264 505.579,520.93 505.5,519.5C 509.297,514.555 514.297,511.388 520.5,510C 528.5,509.333 536.5,509.333 544.5,510C 562.255,517.42 574.089,530.254 580,548.5C 583.179,560.902 580.012,571.069 570.5,579C 567.864,579.934 565.197,580.768 562.5,581.5C 557.428,577.631 551.761,574.797 545.5,573C 537.911,571.542 530.244,570.709 522.5,570.5 Z"/></g>
<g><path style="opacity:1" fill="#acefea" d="M 382.5,510.5 C 389.227,509.477 395.227,510.977 400.5,515C 394.892,518.276 389.558,521.943 384.5,526C 380.295,527.741 375.962,528.408 371.5,528C 370.978,527.439 370.645,526.772 370.5,526C 371.921,521.657 373.754,517.491 376,513.5C 378.166,512.269 380.333,511.269 382.5,510.5 Z"/></g>
<g><path style="opacity:1" fill="#0b0b0b" d="M 535.5,533.5 C 543.597,532.364 550.097,535.03 555,541.5C 557.059,553.273 552.225,560.273 540.5,562.5C 529.046,557.928 525.546,549.928 530,538.5C 532.029,536.967 533.862,535.301 535.5,533.5 Z"/></g>
<g><path style="opacity:1" fill="#e0e1e9" d="M 505.5,519.5 C 505.579,520.93 505.246,522.264 504.5,523.5C 505.025,524.192 505.692,524.692 506.5,525C 505.234,527.383 504.568,530.05 504.5,533C 504.667,535.5 504.833,538 505,540.5C 506.439,542.275 507.439,544.275 508,546.5C 513.299,549.296 516.466,553.629 517.5,559.5C 520.126,560.293 521.96,561.96 523,564.5C 525.091,566.83 524.925,568.83 522.5,570.5C 521.883,570.611 521.383,570.944 521,571.5C 502.815,560.033 496.482,544.033 502,523.5C 502.949,521.907 504.115,520.574 505.5,519.5 Z"/></g>
<g><path style="opacity:1" fill="#9cdfde" d="M 493.5,520.5 C 488.98,538.418 492.647,554.418 504.5,568.5C 503.078,568.709 501.745,569.209 500.5,570C 502.158,570.725 502.658,571.892 502,573.5C 500.108,572.87 498.441,571.87 497,570.5C 487.796,557.141 484.462,542.475 487,526.5C 488.667,524.167 490.333,521.833 492,519.5C 492.383,520.056 492.883,520.389 493.5,520.5 Z"/></g>
<g><path style="opacity:1" fill="#c2ab82" d="M 535.5,580.5 C 541.324,581.361 546.991,582.861 552.5,585C 555.11,587.995 556.443,591.495 556.5,595.5C 552.537,595.089 548.87,595.922 545.5,598C 539.098,603.404 533.765,609.738 529.5,617C 521.478,619.579 516.978,616.745 516,608.5C 515.502,605.183 515.335,601.85 515.5,598.5C 522.276,596.518 528.11,592.852 533,587.5C 534.411,585.35 535.245,583.016 535.5,580.5 Z"/></g>
<g><path style="opacity:1" fill="#ededec" d="M 552.5,604.5 C 559.331,604.079 562.664,607.412 562.5,614.5C 562.167,615.5 561.833,616.5 561.5,617.5C 558.544,614.042 555.377,610.708 552,607.5C 551.53,606.423 551.697,605.423 552.5,604.5 Z"/></g>
<g><path style="opacity:1" fill="#f3f3f3" d="M 546.5,610.5 C 548.39,610.297 549.89,610.963 551,612.5C 555.337,617.726 556.504,623.559 554.5,630C 552.331,630.429 550.331,629.929 548.5,628.5C 545.074,624.675 542.907,620.342 542,615.5C 543.707,613.963 545.207,612.296 546.5,610.5 Z"/></g>
<g><path style="opacity:1" fill="#2d5451" d="M 469.5,618.5 C 472.228,621.968 473.895,625.968 474.5,630.5C 472.056,626.837 470.389,622.837 469.5,618.5 Z"/></g>
<g><path style="opacity:1" fill="#d6b57d" d="M 672.5,683.5 C 669.407,681.891 666.073,680.891 662.5,680.5C 662.762,679.022 662.429,677.689 661.5,676.5C 659.457,675.421 658.124,673.754 657.5,671.5C 656.131,669.947 654.798,669.28 653.5,669.5C 655.429,665.145 657.762,660.979 660.5,657C 668.477,654.317 672.644,657.151 673,665.5C 673.641,671.528 673.474,677.528 672.5,683.5 Z"/></g>
<g><path style="opacity:1" fill="#927a58" d="M 653.5,669.5 C 654.798,669.28 656.131,669.947 657.5,671.5C 658.124,673.754 659.457,675.421 661.5,676.5C 662.429,677.689 662.762,679.022 662.5,680.5C 666.073,680.891 669.407,681.891 672.5,683.5C 671.961,685.505 671.295,687.505 670.5,689.5C 664.195,686.105 658.362,682.105 653,677.5C 650.866,674.508 651.032,671.842 653.5,669.5 Z"/></g>
<g><path style="opacity:1" fill="#0d1111" d="M 469.5,618.5 C 470.389,622.837 472.056,626.837 474.5,630.5C 480.26,651.87 475.926,670.87 461.5,687.5C 443.822,701.559 424.155,705.059 402.5,698C 381.892,686.734 372.225,669.234 373.5,645.5C 375.362,628.942 383.029,615.775 396.5,606C 401.966,602.857 407.633,600.19 413.5,598C 430.689,595.092 446.356,598.425 460.5,608C 464.085,611.078 467.085,614.578 469.5,618.5 Z"/></g>
<g><path style="opacity:1" fill="#d8dce2" d="M 386.5,631.5 C 384.62,650.56 390.286,666.727 403.5,680C 409.386,684.572 416.053,686.405 423.5,685.5C 434.209,686.27 444.209,684.104 453.5,679C 457.506,676.331 460.506,673.331 462.5,670C 463.448,669.517 464.448,669.351 465.5,669.5C 456.925,685.132 443.591,693.132 425.5,693.5C 404.389,693.377 390.555,683.377 384,663.5C 382.424,654.911 382.09,646.244 383,637.5C 383.876,635.242 385.043,633.242 386.5,631.5 Z"/></g>
<g><path style="opacity:1" fill="#f9f9f9" d="M 465.5,669.5 C 464.448,669.351 463.448,669.517 462.5,670C 460.506,673.331 457.506,676.331 453.5,679C 444.209,684.104 434.209,686.27 423.5,685.5C 416.053,686.405 409.386,684.572 403.5,680C 390.286,666.727 384.62,650.56 386.5,631.5C 386.343,630.127 386.51,628.793 387,627.5C 401.114,606.831 420.28,600.331 444.5,608C 466.239,618.985 474.405,636.485 469,660.5C 467.82,663.521 466.654,666.521 465.5,669.5 Z"/></g>
<g><path style="opacity:1" fill="#646466" d="M 413.5,661.5 C 417.693,664.197 422.36,665.197 427.5,664.5C 424.024,665.643 420.358,665.81 416.5,665C 414.937,664.241 413.937,663.074 413.5,661.5 Z"/></g>
<g><path style="opacity:1" fill="#080808" d="M 427.5,664.5 C 422.36,665.197 417.693,664.197 413.5,661.5C 407.69,656.013 406.024,649.347 408.5,641.5C 414.878,630.102 423.212,628.602 433.5,637C 441.134,644.655 441.467,652.655 434.5,661C 432.114,662.193 429.78,663.36 427.5,664.5 Z"/></g>
<g><path style="opacity:1" fill="#9addda" d="M 373.5,645.5 C 372.225,669.234 381.892,686.734 402.5,698C 424.155,705.059 443.822,701.559 461.5,687.5C 459.414,692.386 456.081,696.219 451.5,699C 453.163,699.265 454.663,698.765 456,697.5C 456.688,698.332 456.521,698.998 455.5,699.5C 453.668,700.248 452.001,701.248 450.5,702.5C 448.993,700.31 446.993,698.976 444.5,698.5C 444.5,699.5 444.5,700.5 444.5,701.5C 431.488,702.725 418.488,703.225 405.5,703C 412.421,704.219 419.421,704.886 426.5,705C 424.884,706.077 423.051,706.577 421,706.5C 414.148,705.813 407.315,704.979 400.5,704C 397.978,701.648 394.645,699.648 390.5,698C 374.699,683.874 369.033,666.374 373.5,645.5 Z"/></g>
<g><path style="opacity:1" fill="#98dedd" d="M 366.5,546.5 C 365.797,548.716 364.464,550.549 362.5,552C 353.755,559.021 345.088,566.021 336.5,573C 328.854,583.814 321.354,594.647 314,605.5C 304.284,624.639 300.284,644.972 302,666.5C 305.537,691.825 308.87,717.159 312,742.5C 322.806,755.433 333.139,768.766 343,782.5C 347.193,794.557 353.193,805.557 361,815.5C 365.324,827.148 370.991,838.148 378,848.5C 378.988,851.424 379.654,854.424 380,857.5C 383.275,864.384 386.275,871.384 389,878.5C 396.528,889.353 403.195,900.687 409,912.5C 415.833,920 423,927.167 430.5,934C 452.548,949.478 476.214,962.145 501.5,972C 517.011,976.16 532.678,976.66 548.5,973.5C 549.361,971.089 550.694,969.089 552.5,967.5C 551.771,972.13 551.437,976.797 551.5,981.5C 543.171,981.834 535.837,984.668 529.5,990C 518.204,992.216 506.871,994.216 495.5,996C 480.811,996.104 466.145,995.438 451.5,994C 438.083,989.957 425.417,984.291 413.5,977C 407.683,973.011 402.349,968.511 397.5,963.5C 396.167,961.5 394.5,959.833 392.5,958.5C 385.054,950.96 378.554,942.627 373,933.5C 366.976,916.44 360.643,899.44 354,882.5C 346.624,869.521 338.791,856.854 330.5,844.5C 332.748,842.775 332.248,841.442 329,840.5C 325.432,830.697 320.765,821.363 315,812.5C 291.733,784.157 280.733,751.49 282,714.5C 285.557,717.869 289.724,719.369 294.5,719C 297.921,710.628 295.254,705.628 286.5,704C 280.551,702.927 274.551,702.26 268.5,702C 265.417,700.861 262.417,699.528 259.5,698C 257.398,692.963 254.898,688.129 252,683.5C 251.673,677.323 254.173,672.489 259.5,669C 266.533,666.079 273.866,664.912 281.5,665.5C 279.943,659.261 279.443,652.928 280,646.5C 283.238,628.282 290.572,611.949 302,597.5C 321.338,577.65 342.838,560.65 366.5,546.5 Z"/></g>
<g><path style="opacity:1" fill="#070c0c" d="M 292.5,675.5 C 295.407,677.315 296.741,679.981 296.5,683.5C 292.37,684.296 289.203,682.962 287,679.5C 281.288,677.374 279.121,679.374 280.5,685.5C 285.267,685.191 289.934,685.691 294.5,687C 296.155,688.444 296.822,690.278 296.5,692.5C 288.017,692.233 279.35,692.567 270.5,693.5C 270.372,686.045 272.706,679.545 277.5,674C 279.39,672.888 281.39,672.054 283.5,671.5C 286.639,672.57 289.639,673.904 292.5,675.5 Z"/></g>
<g><path style="opacity:1" fill="#c3d6d6" d="M 292.5,675.5 C 296.468,675.468 298.468,677.468 298.5,681.5C 298.191,685.37 297.524,689.037 296.5,692.5C 296.822,690.278 296.155,688.444 294.5,687C 289.934,685.691 285.267,685.191 280.5,685.5C 279.121,679.374 281.288,677.374 287,679.5C 289.203,682.962 292.37,684.296 296.5,683.5C 296.741,679.981 295.407,677.315 292.5,675.5 Z"/></g>
<g><path style="opacity:1" fill="#b6bac2" d="M 799.5,742.5 C 796.375,743.479 793.042,743.813 789.5,743.5C 789.5,744.833 789.5,746.167 789.5,747.5C 786.134,748.866 782.801,749.533 779.5,749.5C 780.543,746.944 782.21,744.777 784.5,743C 789.489,742.501 794.489,742.334 799.5,742.5 Z"/></g>
<g><path style="opacity:1" fill="#e8eaeb" d="M 940.5,748.5 C 941.32,750.812 942.153,753.146 943,755.5C 943.168,775.338 943.668,795.004 944.5,814.5C 944.5,815.167 944.833,815.5 945.5,815.5C 945.5,865.833 945.5,916.167 945.5,966.5C 944.857,968.076 943.857,969.41 942.5,970.5C 940.319,970.086 937.985,969.919 935.5,970C 933.963,968.89 933.297,967.39 933.5,965.5C 935.527,965.662 937.527,965.495 939.5,965C 940.428,964.612 941.095,963.945 941.5,963C 939.393,960.755 937.059,958.922 934.5,957.5C 935.5,957.5 936.5,957.5 937.5,957.5C 937.5,900.5 937.5,843.5 937.5,786.5C 937.5,778.5 937.5,770.5 937.5,762.5C 935.291,756.288 930.957,752.622 924.5,751.5C 917.352,750.508 910.019,750.175 902.5,750.5C 867.498,750.333 832.498,750.5 797.5,751C 796.263,751.232 795.263,751.732 794.5,752.5C 792.833,753.167 791.167,753.833 789.5,754.5C 787.251,755.08 785.585,756.413 784.5,758.5C 783.833,778.5 783.167,798.5 782.5,818.5C 781.263,817.035 780.263,815.368 779.5,813.5C 779.62,793.982 778.953,774.648 777.5,755.5C 777.629,753.784 777.962,752.117 778.5,750.5C 778.5,749.833 778.833,749.5 779.5,749.5C 782.801,749.533 786.134,748.866 789.5,747.5C 789.5,746.167 789.5,744.833 789.5,743.5C 793.042,743.813 796.375,743.479 799.5,742.5C 841.998,741.335 884.665,741.169 927.5,742C 929.5,742.333 931.5,742.667 933.5,743C 936.572,743.907 938.905,745.74 940.5,748.5 Z"/></g>
<g><path style="opacity:1" fill="#b4b6b8" d="M 902.5,750.5 C 867.833,751.167 833.167,751.833 798.5,752.5C 797.167,752.5 795.833,752.5 794.5,752.5C 795.263,751.732 796.263,751.232 797.5,751C 832.498,750.5 867.498,750.333 902.5,750.5 Z"/></g>
<g><path style="opacity:1" fill="#646668" d="M 902.5,750.5 C 910.019,750.175 917.352,750.508 924.5,751.5C 882.507,752.374 840.507,752.707 798.5,752.5C 833.167,751.833 867.833,751.167 902.5,750.5 Z"/></g>
<g><path style="opacity:1" fill="#1d1f20" d="M 924.5,751.5 C 930.957,752.622 935.291,756.288 937.5,762.5C 936.833,765.167 936.167,767.833 935.5,770.5C 935.806,767.615 935.473,764.948 934.5,762.5C 932.588,759.539 929.921,757.539 926.5,756.5C 926.082,755.778 925.416,755.278 924.5,755C 882.167,754.333 839.833,754.333 797.5,755C 793.879,755.456 791.212,757.289 789.5,760.5C 788.691,759.531 787.691,758.698 786.5,758C 787.71,756.961 788.71,755.794 789.5,754.5C 791.167,753.833 792.833,753.167 794.5,752.5C 795.833,752.5 797.167,752.5 798.5,752.5C 840.507,752.707 882.507,752.374 924.5,751.5 Z"/></g>
<g><path style="opacity:1" fill="#dee4e6" d="M 926.5,756.5 C 883.165,756.333 839.832,756.5 796.5,757C 796.043,757.414 795.709,757.914 795.5,758.5C 835.994,758.182 876.661,758.515 917.5,759.5C 918.348,760.991 919.681,761.658 921.5,761.5C 922.5,761.333 923.5,761.167 924.5,761C 923.062,760.781 921.729,760.281 920.5,759.5C 922.966,758.119 924.966,758.619 926.5,761C 926.043,761.414 925.709,761.914 925.5,762.5C 926.612,763.265 927.279,764.265 927.5,765.5C 926.508,765.328 925.842,765.662 925.5,766.5C 922.815,764.297 919.815,763.63 916.5,764.5C 915.672,767.716 915.338,770.716 915.5,773.5C 879.542,772.34 843.542,772.173 807.5,773C 804.23,773.995 800.897,774.828 797.5,775.5C 798.855,776.675 798.688,777.675 797,778.5C 793.863,776.197 791.696,773.197 790.5,769.5C 789.824,770.602 789.158,771.602 788.5,772.5C 788.5,770.5 788.5,768.5 788.5,766.5C 788.325,764.379 788.659,762.379 789.5,760.5C 791.212,757.289 793.879,755.456 797.5,755C 839.833,754.333 882.167,754.333 924.5,755C 925.416,755.278 926.082,755.778 926.5,756.5 Z"/></g>
<g><path style="opacity:1" fill="#404647" d="M 789.5,754.5 C 788.71,755.794 787.71,756.961 786.5,758C 787.691,758.698 788.691,759.531 789.5,760.5C 788.659,762.379 788.325,764.379 788.5,766.5C 787.833,800.833 787.167,835.167 786.5,869.5C 786.667,834.832 786.5,800.165 786,765.5C 785.667,785.5 785.333,805.5 785,825.5C 784.487,824.473 783.987,823.473 783.5,822.5C 784.497,801.34 784.831,780.007 784.5,758.5C 785.585,756.413 787.251,755.08 789.5,754.5 Z"/></g>
<g><path style="opacity:1" fill="#0c0f0e" d="M 503.5,808.5 C 498.312,810.688 493.645,813.688 489.5,817.5C 479.346,820.564 471.679,817.564 466.5,808.5C 466.335,805.15 466.502,801.817 467,798.5C 469.592,792.027 472.925,786.027 477,780.5C 482.394,778.112 487.56,775.279 492.5,772C 502.275,769.43 509.775,772.263 515,780.5C 516.344,787.388 515.01,793.722 511,799.5C 508.565,802.614 506.065,805.614 503.5,808.5 Z"/></g>
<g><path style="opacity:1" fill="#bcd0d8" d="M 751.5,771.5 C 749.801,771.34 748.134,771.506 746.5,772C 747.448,772.483 748.448,772.649 749.5,772.5C 749.551,774.57 748.885,776.403 747.5,778C 748.457,786.458 748.79,794.958 748.5,803.5C 746.69,794.889 745.856,785.889 746,776.5C 745.586,776.043 745.086,775.709 744.5,775.5C 743.719,776.729 743.219,778.062 743,779.5C 742.768,778.263 742.268,777.263 741.5,776.5C 740.735,773.904 740.401,771.237 740.5,768.5C 744.794,767.807 748.461,768.807 751.5,771.5 Z"/></g>
<g><path style="opacity:1" fill="#989c9e" d="M 784.5,758.5 C 784.831,780.007 784.497,801.34 783.5,822.5C 783.167,821.167 782.833,819.833 782.5,818.5C 783.167,798.5 783.833,778.5 784.5,758.5 Z"/></g>
<g><path style="opacity:1" fill="#050606" d="M 937.5,762.5 C 937.5,770.5 937.5,778.5 937.5,786.5C 936.667,842.665 936.167,898.999 936,955.5C 935.5,897.834 935.333,840.168 935.5,782.5C 935.5,778.5 935.5,774.5 935.5,770.5C 936.167,767.833 936.833,765.167 937.5,762.5 Z"/></g>
<g><path style="opacity:1" fill="#d7e9ee" d="M 751.5,771.5 C 752.167,771.833 752.833,772.167 753.5,772.5C 753.5,782.833 753.5,793.167 753.5,803.5C 751.833,803.5 750.167,803.5 748.5,803.5C 748.79,794.958 748.457,786.458 747.5,778C 748.885,776.403 749.551,774.57 749.5,772.5C 748.448,772.649 747.448,772.483 746.5,772C 748.134,771.506 749.801,771.34 751.5,771.5 Z"/></g>
<g><path style="opacity:1" fill="#73787d" d="M 778.5,750.5 C 777.962,752.117 777.629,753.784 777.5,755.5C 777.5,774.167 777.5,792.833 777.5,811.5C 776.338,791.671 776.171,771.671 777,751.5C 777.383,750.944 777.883,750.611 778.5,750.5 Z"/></g>
<g><path style="opacity:1" fill="#768a93" d="M 753.5,772.5 C 754.33,781.991 754.83,791.658 755,801.5C 755.278,802.416 755.778,803.082 756.5,803.5C 753.038,804.482 749.371,804.815 745.5,804.5C 745.666,799.821 745.499,795.155 745,790.5C 744.79,788.942 744.29,787.609 743.5,786.5C 742.213,783.302 741.547,779.969 741.5,776.5C 742.268,777.263 742.768,778.263 743,779.5C 743.219,778.062 743.719,776.729 744.5,775.5C 745.086,775.709 745.586,776.043 746,776.5C 745.856,785.889 746.69,794.889 748.5,803.5C 750.167,803.5 751.833,803.5 753.5,803.5C 753.5,793.167 753.5,782.833 753.5,772.5 Z"/></g>
<g><path style="opacity:1" fill="#d3b27d" d="M 504.5,793.5 C 498.463,790.594 493.463,791.927 489.5,797.5C 489.051,793.917 487.718,790.75 485.5,788C 486.252,787.329 486.586,786.496 486.5,785.5C 491.644,780.941 497.644,779.441 504.5,781C 507.057,785.098 507.057,789.265 504.5,793.5 Z"/></g>
<g><path style="opacity:1" fill="#9d9e9e" d="M 940.5,748.5 C 941.794,749.29 942.961,750.29 944,751.5C 944.5,772.497 944.667,793.497 944.5,814.5C 943.668,795.004 943.168,775.338 943,755.5C 942.153,753.146 941.32,750.812 940.5,748.5 Z"/></g>
<g><path style="opacity:1" fill="#abb3b9" d="M 777.5,755.5 C 778.953,774.648 779.62,793.982 779.5,813.5C 778.5,813.167 777.833,812.5 777.5,811.5C 777.5,792.833 777.5,774.167 777.5,755.5 Z"/></g>
<g><path style="opacity:1" fill="#9b835e" d="M 486.5,785.5 C 486.586,786.496 486.252,787.329 485.5,788C 487.718,790.75 489.051,793.917 489.5,797.5C 493.463,791.927 498.463,790.594 504.5,793.5C 499.8,799.743 494.133,804.91 487.5,809C 476.981,811.134 473.481,806.968 477,796.5C 479.284,792.051 482.451,788.384 486.5,785.5 Z"/></g>
<g><path style="opacity:1" fill="#394349" d="M 743.5,786.5 C 744.29,787.609 744.79,788.942 745,790.5C 745.499,795.155 745.666,799.821 745.5,804.5C 749.371,804.815 753.038,804.482 756.5,803.5C 757.043,803.56 757.376,803.893 757.5,804.5C 753.217,805.492 748.884,805.826 744.5,805.5C 744.593,799.137 744.26,792.804 743.5,786.5 Z"/></g>
<g><path style="opacity:1" fill="#b4bcbd" d="M 788.5,766.5 C 788.5,768.5 788.5,770.5 788.5,772.5C 788.704,831.34 788.037,890.007 786.5,948.5C 786.5,947.5 786.5,946.5 786.5,945.5C 786.5,920.5 786.5,895.5 786.5,870.5C 786.5,870.167 786.5,869.833 786.5,869.5C 787.167,835.167 787.833,800.833 788.5,766.5 Z"/></g>
<g><path style="opacity:1" fill="#224f4d" d="M 503.5,808.5 C 503.5,808.833 503.5,809.167 503.5,809.5C 499.414,813.209 494.747,815.876 489.5,817.5C 493.645,813.688 498.312,810.688 503.5,808.5 Z"/></g>
<g><path style="opacity:1" fill="#f5d463" d="M 156.5,1023.5 C 154.5,1023.5 152.5,1023.5 150.5,1023.5C 200.787,954.36 250.954,885.027 301,815.5C 309.049,828.265 316.049,841.598 322,855.5C 326.672,860.529 330.005,866.195 332,872.5C 281.654,916.535 230.821,959.701 179.5,1002C 171.616,1009.05 163.949,1016.22 156.5,1023.5 Z"/></g>
<g><path style="opacity:1" fill="#c6b083" d="M 770.5,833.5 C 769.21,832.942 768.377,831.942 768,830.5C 759.794,835.458 750.961,837.125 741.5,835.5C 741.137,834.817 740.804,834.15 740.5,833.5C 740.378,828.768 740.878,824.102 742,819.5C 742.5,819 743,818.5 743.5,818C 749.833,817.333 756.167,817.333 762.5,818C 770.689,820.547 773.356,825.713 770.5,833.5 Z"/></g>
<g><path style="opacity:1" fill="#95dddb" d="M 466.5,808.5 C 471.679,817.564 479.346,820.564 489.5,817.5C 494.747,815.876 499.414,813.209 503.5,809.5C 501.723,816.573 497.723,822.739 491.5,828C 481.58,829.139 473.747,825.639 468,817.5C 467.047,814.568 466.547,811.568 466.5,808.5 Z"/></g>
<g><path style="opacity:1" fill="#9a8460" d="M 770.5,833.5 C 767.414,838.092 763.747,842.258 759.5,846C 751.407,850.554 743.073,854.221 734.5,857C 736.45,849.058 738.45,841.225 740.5,833.5C 740.804,834.15 741.137,834.817 741.5,835.5C 750.961,837.125 759.794,835.458 768,830.5C 768.377,831.942 769.21,832.942 770.5,833.5 Z"/></g>
<g><path style="opacity:1" fill="#f1f3f2" d="M 926.5,756.5 C 929.921,757.539 932.588,759.539 934.5,762.5C 933.562,825.493 933.228,888.493 933.5,951.5C 918.867,953.321 903.867,954.154 888.5,954C 854.502,954.5 820.502,954.667 786.5,954.5C 786.5,954.167 786.5,953.833 786.5,953.5C 786.5,951.833 786.5,950.167 786.5,948.5C 788.037,890.007 788.704,831.34 788.5,772.5C 789.158,771.602 789.824,770.602 790.5,769.5C 791.696,773.197 793.863,776.197 797,778.5C 798.688,777.675 798.855,776.675 797.5,775.5C 800.897,774.828 804.23,773.995 807.5,773C 843.542,772.173 879.542,772.34 915.5,773.5C 915.338,770.716 915.672,767.716 916.5,764.5C 919.815,763.63 922.815,764.297 925.5,766.5C 925.5,767.833 925.5,769.167 925.5,770.5C 923.071,770.116 920.737,769.449 918.5,768.5C 918.025,771.313 919.025,773.313 921.5,774.5C 922.568,775.434 923.901,775.768 925.5,775.5C 925.5,778.833 925.5,782.167 925.5,785.5C 924.07,785.579 922.736,785.246 921.5,784.5C 920.337,789.802 920.171,795.136 921,800.5C 921.862,798.913 922.529,797.246 923,795.5C 924.268,808.79 925.101,822.124 925.5,835.5C 925.552,839.587 925.052,843.587 924,847.5C 922.612,846.446 921.112,846.28 919.5,847C 918.016,848.574 916.349,849.907 914.5,851C 877.847,852.518 841.18,852.852 804.5,852C 800.808,850.499 798.642,847.665 798,843.5C 797.643,828.495 797.143,813.495 796.5,798.5C 796.551,794.628 796.885,790.795 797.5,787C 797.37,785.941 796.87,785.108 796,784.5C 795.667,786.167 795.333,787.833 795,789.5C 792.905,786.124 791.571,782.457 791,778.5C 791.255,819.531 791.089,860.698 790.5,902C 790.794,914.438 791.961,926.604 794,938.5C 794.677,936.311 795.844,935.978 797.5,937.5C 799.228,935.774 801.228,934.441 803.5,933.5C 804.107,933.624 804.44,933.957 804.5,934.5C 803.766,935.708 803.433,937.041 803.5,938.5C 805.099,938.768 806.432,938.434 807.5,937.5C 808.161,936.282 808.828,934.949 809.5,933.5C 811.286,937.902 809.786,940.569 805,941.5C 804.362,942.609 803.862,943.775 803.5,945C 804.035,946.537 804.368,948.037 804.5,949.5C 805.281,948.271 805.781,946.938 806,945.5C 808.405,946.274 810.905,946.774 813.5,947C 813.446,948.351 813.946,949.518 815,950.5C 816.741,948.546 818.908,947.546 821.5,947.5C 821.5,948.5 821.5,949.5 821.5,950.5C 822.5,950.5 823.5,950.5 824.5,950.5C 824.5,949.167 824.5,947.833 824.5,946.5C 829.255,947.731 834.088,948.731 839,949.5C 844.509,949.099 850.009,948.599 855.5,948C 856.025,947.308 856.692,946.808 857.5,946.5C 857.911,947.262 858.077,948.262 858,949.5C 866.755,948.681 875.589,948.181 884.5,948C 886.988,944.733 885.988,942.733 881.5,942C 870.19,941.16 858.857,940.66 847.5,940.5C 847.5,939.5 847.5,938.5 847.5,937.5C 849.167,937.5 850.833,937.5 852.5,937.5C 859.342,937.961 866.009,937.128 872.5,935C 875.014,934.119 877.014,932.619 878.5,930.5C 888.969,921.936 892.302,911.27 888.5,898.5C 888.369,897.761 888.536,897.094 889,896.5C 893.534,901.945 896.034,908.278 896.5,915.5C 897.711,916.39 899.045,916.39 900.5,915.5C 901.91,915.868 902.91,916.701 903.5,918C 901.893,917.981 900.226,917.815 898.5,917.5C 898.205,919.735 898.539,921.735 899.5,923.5C 896.987,929.699 894.654,936.032 892.5,942.5C 892.608,943.442 892.941,944.275 893.5,945C 895.134,945.494 896.801,945.66 898.5,945.5C 898.948,941.704 899.948,938.038 901.5,934.5C 902.163,932.958 902.83,931.291 903.5,929.5C 904.494,934.456 904.827,939.456 904.5,944.5C 907.059,944.802 909.393,944.468 911.5,943.5C 912.304,941.811 913.304,940.145 914.5,938.5C 915.23,940.341 915.897,942.175 916.5,944C 917.833,944.167 919.167,944.333 920.5,944.5C 922.333,944.415 923.666,943.748 924.5,942.5C 925.152,941.551 925.486,940.385 925.5,939C 924.909,936.761 924.242,934.594 923.5,932.5C 924.117,932.389 924.617,932.056 925,931.5C 925.333,927.167 925.667,922.833 926,918.5C 926.833,919.5 927.667,920.5 928.5,921.5C 929.831,869.668 929.831,818.002 928.5,766.5C 928.5,765.833 928.167,765.5 927.5,765.5C 927.279,764.265 926.612,763.265 925.5,762.5C 925.709,761.914 926.043,761.414 926.5,761C 924.966,758.619 922.966,758.119 920.5,759.5C 921.729,760.281 923.062,760.781 924.5,761C 923.5,761.167 922.5,761.333 921.5,761.5C 919.681,761.658 918.348,760.991 917.5,759.5C 876.661,758.515 835.994,758.182 795.5,758.5C 795.709,757.914 796.043,757.414 796.5,757C 839.832,756.5 883.165,756.333 926.5,756.5 Z"/></g>
<g><path style="opacity:1" fill="#3f3b33" d="M 820.5,778.5 C 851.662,777.502 882.996,777.168 914.5,777.5C 915.117,777.611 915.617,777.944 916,778.5C 916.83,800.671 916.663,822.671 915.5,844.5C 915.827,822.591 915.494,800.758 914.5,779C 883.168,778.5 851.835,778.333 820.5,778.5 Z"/></g>
<g><path style="opacity:1" fill="#827f7c" d="M 914.5,777.5 C 882.996,777.168 851.662,777.502 820.5,778.5C 815.087,778.229 809.754,778.729 804.5,780C 803.107,781.171 802.273,782.671 802,784.5C 801.5,804.164 801.333,823.831 801.5,843.5C 800.337,823.004 800.171,802.337 801,781.5C 802.353,780.315 803.52,778.981 804.5,777.5C 841.331,776.17 877.998,776.17 914.5,777.5 Z"/></g>
<g><path style="opacity:1" fill="#b0b3b3" d="M 927.5,765.5 C 928.167,765.5 928.5,765.833 928.5,766.5C 928.5,768.5 928.5,770.5 928.5,772.5C 926.263,773.449 923.929,774.116 921.5,774.5C 919.025,773.313 918.025,771.313 918.5,768.5C 920.737,769.449 923.071,770.116 925.5,770.5C 925.5,769.167 925.5,767.833 925.5,766.5C 925.842,765.662 926.508,765.328 927.5,765.5 Z"/></g>
<g><path style="opacity:1" fill="#e9eaea" d="M 928.5,766.5 C 929.831,818.002 929.831,869.668 928.5,921.5C 927.667,920.5 926.833,919.5 926,918.5C 925.667,922.833 925.333,927.167 925,931.5C 924.617,932.056 924.117,932.389 923.5,932.5C 923.5,931.833 923.5,931.167 923.5,930.5C 924.483,926.702 924.817,922.702 924.5,918.5C 923.167,918.5 921.833,918.5 920.5,918.5C 920.737,919.791 920.404,920.791 919.5,921.5C 916.006,919.89 913.34,920.89 911.5,924.5C 913.973,926.098 913.973,927.598 911.5,929C 909.934,929.3 908.601,928.8 907.5,927.5C 908.167,925.5 908.833,923.5 909.5,921.5C 907.94,921.519 906.44,921.852 905,922.5C 903.518,920.888 901.685,919.888 899.5,919.5C 899.5,920.833 899.5,922.167 899.5,923.5C 898.539,921.735 898.205,919.735 898.5,917.5C 900.226,917.815 901.893,917.981 903.5,918C 902.91,916.701 901.91,915.868 900.5,915.5C 899.045,916.39 897.711,916.39 896.5,915.5C 896.034,908.278 893.534,901.945 889,896.5C 888.536,897.094 888.369,897.761 888.5,898.5C 887.857,896.924 886.857,895.59 885.5,894.5C 882.706,889.041 878.372,885.374 872.5,883.5C 857.059,878.408 844.892,882.741 836,896.5C 835.648,898.247 835.148,899.914 834.5,901.5C 833.347,907.653 833.18,913.986 834,920.5C 834.383,921.056 834.883,921.389 835.5,921.5C 838.981,928.982 844.648,933.982 852.5,936.5C 852.5,936.833 852.5,937.167 852.5,937.5C 850.833,937.5 849.167,937.5 847.5,937.5C 847.5,938.5 847.5,939.5 847.5,940.5C 858.857,940.66 870.19,941.16 881.5,942C 885.988,942.733 886.988,944.733 884.5,948C 875.589,948.181 866.755,948.681 858,949.5C 858.077,948.262 857.911,947.262 857.5,946.5C 856.692,946.808 856.025,947.308 855.5,948C 850.009,948.599 844.509,949.099 839,949.5C 834.088,948.731 829.255,947.731 824.5,946.5C 824.5,947.833 824.5,949.167 824.5,950.5C 823.5,950.5 822.5,950.5 821.5,950.5C 821.5,949.5 821.5,948.5 821.5,947.5C 818.908,947.546 816.741,948.546 815,950.5C 813.946,949.518 813.446,948.351 813.5,947C 810.905,946.774 808.405,946.274 806,945.5C 805.781,946.938 805.281,948.271 804.5,949.5C 804.368,948.037 804.035,946.537 803.5,945C 803.862,943.775 804.362,942.609 805,941.5C 809.786,940.569 811.286,937.902 809.5,933.5C 808.828,934.949 808.161,936.282 807.5,937.5C 807.5,936.5 807.5,935.5 807.5,934.5C 806.5,934.5 805.5,934.5 804.5,934.5C 804.44,933.957 804.107,933.624 803.5,933.5C 801.228,934.441 799.228,935.774 797.5,937.5C 795.844,935.978 794.677,936.311 794,938.5C 791.961,926.604 790.794,914.438 790.5,902C 791.089,860.698 791.255,819.531 791,778.5C 791.571,782.457 792.905,786.124 795,789.5C 795.333,787.833 795.667,786.167 796,784.5C 796.87,785.108 797.37,785.941 797.5,787C 796.885,790.795 796.551,794.628 796.5,798.5C 797.143,813.495 797.643,828.495 798,843.5C 798.642,847.665 800.808,850.499 804.5,852C 841.18,852.852 877.847,852.518 914.5,851C 916.349,849.907 918.016,848.574 919.5,847C 921.112,846.28 922.612,846.446 924,847.5C 925.052,843.587 925.552,839.587 925.5,835.5C 925.101,822.124 924.268,808.79 923,795.5C 922.529,797.246 921.862,798.913 921,800.5C 920.171,795.136 920.337,789.802 921.5,784.5C 922.736,785.246 924.07,785.579 925.5,785.5C 925.5,782.167 925.5,778.833 925.5,775.5C 923.901,775.768 922.568,775.434 921.5,774.5C 923.929,774.116 926.263,773.449 928.5,772.5C 928.5,770.5 928.5,768.5 928.5,766.5 Z"/></g>
<g><path style="opacity:1" fill="#1b170f" d="M 820.5,778.5 C 851.835,778.333 883.168,778.5 914.5,779C 915.494,800.758 915.827,822.591 915.5,844.5C 914.373,845.122 913.373,845.955 912.5,847C 876.833,847.667 841.167,847.667 805.5,847C 804.468,845.373 803.134,844.207 801.5,843.5C 801.333,823.831 801.5,804.164 802,784.5C 802.273,782.671 803.107,781.171 804.5,780C 809.754,778.729 815.087,778.229 820.5,778.5 Z"/></g>
<g><path style="opacity:1" fill="#c0bd72" d="M 806.5,792.5 C 806.167,808.847 806.501,825.18 807.5,841.5C 808.308,841.808 808.975,842.308 809.5,843C 843.498,843.5 877.498,843.667 911.5,843.5C 876.167,844.833 840.833,844.833 805.5,843.5C 805.17,826.325 805.503,809.325 806.5,792.5 Z"/></g>
<g><path style="opacity:1" fill="#ae975e" d="M 911.5,843.5 C 911.5,825.167 911.5,806.833 911.5,788.5C 911.5,787.5 911.5,786.5 911.5,785.5C 894.513,784.167 877.18,783.5 859.5,783.5C 842.167,783.667 824.833,783.833 807.5,784C 806.62,785.356 806.286,786.856 806.5,788.5C 806.5,789.5 806.5,790.5 806.5,791.5C 806.5,791.833 806.5,792.167 806.5,792.5C 805.503,809.325 805.17,826.325 805.5,843.5C 804.338,824.338 804.171,805.004 805,785.5C 805.374,784.584 805.874,783.75 806.5,783C 841.832,782.5 877.165,782.333 912.5,782.5C 912.83,803.007 912.497,823.34 911.5,843.5 Z"/></g>
<g><path style="opacity:1" fill="#fbf287" d="M 910.5,788.5 C 910.833,788.5 911.167,788.5 911.5,788.5C 911.5,806.833 911.5,825.167 911.5,843.5C 877.498,843.667 843.498,843.5 809.5,843C 808.975,842.308 808.308,841.808 807.5,841.5C 806.501,825.18 806.167,808.847 806.5,792.5C 806.5,792.167 806.5,791.833 806.5,791.5C 806.833,791.5 807.167,791.5 807.5,791.5C 807.857,807.786 807.857,824.119 807.5,840.5C 837.977,839.618 868.31,839.618 898.5,840.5C 902.437,840.793 906.27,840.46 910,839.5C 910.5,822.503 910.667,805.503 910.5,788.5 Z"/></g>
<g><path style="opacity:1" fill="#faf36c" d="M 807.5,791.5 C 809.415,791.216 811.081,791.549 812.5,792.5C 811.789,808.066 810.789,823.733 809.5,839.5C 823.559,839.006 837.559,838.006 851.5,836.5C 867.128,837.804 882.795,838.804 898.5,839.5C 898.5,839.833 898.5,840.167 898.5,840.5C 868.31,839.618 837.977,839.618 807.5,840.5C 807.857,824.119 807.857,807.786 807.5,791.5 Z"/></g>
<g><path style="opacity:1" fill="#fadc57" d="M 909.5,788.5 C 909.833,788.5 910.167,788.5 910.5,788.5C 910.667,805.503 910.5,822.503 910,839.5C 906.27,840.46 902.437,840.793 898.5,840.5C 898.5,840.167 898.5,839.833 898.5,839.5C 902.016,838.746 905.349,837.413 908.5,835.5C 908.889,832.447 908.223,829.78 906.5,827.5C 906.5,814.833 906.5,802.167 906.5,789.5C 907.791,789.737 908.791,789.404 909.5,788.5 Z"/></g>
<g><path style="opacity:1" fill="#fbea52" d="M 812.5,792.5 C 812.334,802.172 812.5,811.839 813,821.5C 813.122,823.437 813.955,824.77 815.5,825.5C 815.539,826.583 815.873,827.583 816.5,828.5C 818.743,829.474 821.076,829.808 823.5,829.5C 823.5,830.5 823.5,831.5 823.5,832.5C 827.327,832.613 830.827,831.613 834,829.5C 834.309,830.766 834.809,831.933 835.5,833C 842.158,833.5 848.825,833.666 855.5,833.5C 855.5,832.167 855.5,830.833 855.5,829.5C 858.313,829.975 860.313,828.975 861.5,826.5C 861.833,826.5 862.167,826.5 862.5,826.5C 866.5,827.833 870.5,827.833 874.5,826.5C 875.167,826.167 875.833,825.833 876.5,825.5C 877.496,825.414 878.329,825.748 879,826.5C 879.333,816.5 879.667,806.5 880,796.5C 880.17,805.676 880.67,814.676 881.5,823.5C 882.1,824.9 883.1,825.9 884.5,826.5C 886.237,829.012 888.737,830.012 892,829.5C 894.302,829.4 896.302,828.733 898,827.5C 899.849,828.561 901.849,829.227 904,829.5C 905.376,829.316 906.209,828.649 906.5,827.5C 908.223,829.78 908.889,832.447 908.5,835.5C 905.349,837.413 902.016,838.746 898.5,839.5C 882.795,838.804 867.128,837.804 851.5,836.5C 837.559,838.006 823.559,839.006 809.5,839.5C 810.789,823.733 811.789,808.066 812.5,792.5 Z"/></g>
<g><path style="opacity:1" fill="#fbe13e" d="M 861.5,826.5 C 860.313,828.975 858.313,829.975 855.5,829.5C 855.5,830.833 855.5,832.167 855.5,833.5C 848.825,833.666 842.158,833.5 835.5,833C 834.809,831.933 834.309,830.766 834,829.5C 830.827,831.613 827.327,832.613 823.5,832.5C 823.5,831.5 823.5,830.5 823.5,829.5C 821.076,829.808 818.743,829.474 816.5,828.5C 815.873,827.583 815.539,826.583 815.5,825.5C 815.833,825.5 816.167,825.5 816.5,825.5C 821.975,826.489 827.642,826.822 833.5,826.5C 833.5,824.5 833.5,822.5 833.5,820.5C 833.336,812.459 833.836,804.459 835,796.5C 835.278,797.416 835.778,798.082 836.5,798.5C 836.745,807.194 836.412,815.861 835.5,824.5C 835.437,826.481 836.104,828.148 837.5,829.5C 842.5,828.833 847.5,828.167 852.5,827.5C 853.497,820.866 853.83,814.2 853.5,807.5C 851.833,807.5 850.167,807.5 848.5,807.5C 848.5,806.5 848.5,805.5 848.5,804.5C 849.5,804.5 850.5,804.5 851.5,804.5C 851.5,801.5 851.5,798.5 851.5,795.5C 853.004,793.697 855.004,792.697 857.5,792.5C 858.994,792.709 860.161,793.376 861,794.5C 861.5,805.161 861.667,815.828 861.5,826.5 Z"/></g>
<g><path style="opacity:1" fill="#fad035" d="M 906.5,827.5 C 906.209,828.649 905.376,829.316 904,829.5C 901.849,829.227 899.849,828.561 898,827.5C 896.302,828.733 894.302,829.4 892,829.5C 888.737,830.012 886.237,829.012 884.5,826.5C 885.167,826.5 885.833,826.5 886.5,826.5C 890.5,826.5 894.5,826.5 898.5,826.5C 899.15,819.285 899.983,811.951 901,804.5C 901.413,807.232 902.08,809.899 903,812.5C 903.333,812.167 903.667,811.833 904,811.5C 904.529,816.854 904.362,822.187 903.5,827.5C 904.5,827.5 905.5,827.5 906.5,827.5 Z"/></g>
<g><path style="opacity:1" fill="#ba6406" d="M 831.5,820.5 C 832.167,820.5 832.833,820.5 833.5,820.5C 833.5,822.5 833.5,824.5 833.5,826.5C 827.642,826.822 821.975,826.489 816.5,825.5C 816.5,824.167 816.5,822.833 816.5,821.5C 817.434,822.568 817.768,823.901 817.5,825.5C 822.167,825.5 826.833,825.5 831.5,825.5C 831.5,823.833 831.5,822.167 831.5,820.5 Z"/></g>
<g><path style="opacity:1" fill="#f4ca47" d="M 851.5,795.5 C 851.5,798.5 851.5,801.5 851.5,804.5C 850.5,804.5 849.5,804.5 848.5,804.5C 848.5,805.5 848.5,806.5 848.5,807.5C 850.167,807.5 851.833,807.5 853.5,807.5C 853.83,814.2 853.497,820.866 852.5,827.5C 847.5,828.167 842.5,828.833 837.5,829.5C 836.104,828.148 835.437,826.481 835.5,824.5C 836.412,815.861 836.745,807.194 836.5,798.5C 836.5,797.833 836.833,797.5 837.5,797.5C 837.918,796.778 838.584,796.278 839.5,796C 843.486,795.501 847.486,795.334 851.5,795.5 Z"/></g>
<g><path style="opacity:1" fill="#a04708" d="M 846.5,801.5 C 845.432,800.566 844.099,800.232 842.5,800.5C 842.5,807.5 842.5,814.5 842.5,821.5C 843.833,821.5 845.167,821.5 846.5,821.5C 846.5,817.167 846.5,812.833 846.5,808.5C 848.167,808.5 849.833,808.5 851.5,808.5C 850.474,814.196 850.307,819.862 851,825.5C 846.263,826.469 841.43,826.803 836.5,826.5C 836.232,824.901 836.566,823.568 837.5,822.5C 838.492,814.684 838.826,806.684 838.5,798.5C 841.833,798.5 845.167,798.5 848.5,798.5C 848.715,800.179 848.048,801.179 846.5,801.5 Z"/></g>
<g><path style="opacity:1" fill="#dc9529" d="M 863.5,797.5 C 863.5,807.167 863.5,816.833 863.5,826.5C 867.167,826.5 870.833,826.5 874.5,826.5C 870.5,827.833 866.5,827.833 862.5,826.5C 862.173,816.652 862.506,806.986 863.5,797.5 Z"/></g>
<g><path style="opacity:1" fill="#af4402" d="M 882.5,796.5 C 887.5,796.5 892.5,796.5 897.5,796.5C 898.474,806.418 898.807,816.418 898.5,826.5C 894.5,826.5 890.5,826.5 886.5,826.5C 885.909,825.849 885.243,825.182 884.5,824.5C 887.642,823.833 890.642,823.166 893.5,822.5C 893.666,815.825 893.5,809.158 893,802.5C 890.619,801.565 888.119,801.232 885.5,801.5C 884.672,807.653 884.172,813.987 884,820.5C 883.699,812.475 883.199,804.475 882.5,796.5 Z"/></g>
<g><path style="opacity:1" fill="#ecb22f" d="M 885.5,801.5 C 888.119,801.232 890.619,801.565 893,802.5C 893.5,809.158 893.666,815.825 893.5,822.5C 890.833,822.5 888.167,822.5 885.5,822.5C 885.5,815.5 885.5,808.5 885.5,801.5 Z"/></g>
<g><path style="opacity:1" fill="#fbe028" d="M 889.5,803.5 C 890.496,803.414 891.329,803.748 892,804.5C 892.83,810.196 892.663,815.863 891.5,821.5C 889.929,820.691 888.262,820.357 886.5,820.5C 886.5,815.167 886.5,809.833 886.5,804.5C 887.791,804.737 888.791,804.404 889.5,803.5 Z"/></g>
<g><path style="opacity:1" fill="#b35c07" d="M 882.5,796.5 C 883.199,804.475 883.699,812.475 884,820.5C 884.172,813.987 884.672,807.653 885.5,801.5C 885.5,808.5 885.5,815.5 885.5,822.5C 888.167,822.5 890.833,822.5 893.5,822.5C 890.642,823.166 887.642,823.833 884.5,824.5C 885.243,825.182 885.909,825.849 886.5,826.5C 885.833,826.5 885.167,826.5 884.5,826.5C 883.1,825.9 882.1,824.9 881.5,823.5C 881.173,814.318 881.507,805.318 882.5,796.5 Z"/></g>
<g><path style="opacity:1" fill="#ecb51d" d="M 812.5,789.5 C 812.5,789.167 812.5,788.833 812.5,788.5C 844.833,788.5 877.167,788.5 909.5,788.5C 908.791,789.404 907.791,789.737 906.5,789.5C 906.5,802.167 906.5,814.833 906.5,827.5C 905.5,827.5 904.5,827.5 903.5,827.5C 904.362,822.187 904.529,816.854 904,811.5C 903.667,811.833 903.333,812.167 903,812.5C 902.08,809.899 901.413,807.232 901,804.5C 899.983,811.951 899.15,819.285 898.5,826.5C 898.807,816.418 898.474,806.418 897.5,796.5C 898.75,796.577 899.583,797.244 900,798.5C 902.112,796.364 901.945,794.364 899.5,792.5C 896.494,791.252 893.494,791.252 890.5,792.5C 889.5,792.167 888.833,791.5 888.5,790.5C 863.175,789.5 837.842,789.167 812.5,789.5 Z"/></g>
<g><path style="opacity:1" fill="#f9cb2c" d="M 810.5,785.5 C 809.766,786.708 809.433,788.041 809.5,789.5C 810.5,789.5 811.5,789.5 812.5,789.5C 837.842,789.167 863.175,789.5 888.5,790.5C 888.833,791.5 889.5,792.167 890.5,792.5C 893.494,791.252 896.494,791.252 899.5,792.5C 901.945,794.364 902.112,796.364 900,798.5C 899.583,797.244 898.75,796.577 897.5,796.5C 892.5,796.5 887.5,796.5 882.5,796.5C 881.507,805.318 881.173,814.318 881.5,823.5C 880.67,814.676 880.17,805.676 880,796.5C 879.667,806.5 879.333,816.5 879,826.5C 878.329,825.748 877.496,825.414 876.5,825.5C 876.832,816.143 876.498,806.81 875.5,797.5C 871.47,796.173 867.47,796.173 863.5,797.5C 862.506,806.986 862.173,816.652 862.5,826.5C 862.167,826.5 861.833,826.5 861.5,826.5C 861.667,815.828 861.5,805.161 861,794.5C 860.161,793.376 858.994,792.709 857.5,792.5C 855.004,792.697 853.004,793.697 851.5,795.5C 847.486,795.334 843.486,795.501 839.5,796C 838.584,796.278 837.918,796.778 837.5,797.5C 836.833,797.5 836.5,797.833 836.5,798.5C 835.778,798.082 835.278,797.416 835,796.5C 833.836,804.459 833.336,812.459 833.5,820.5C 832.833,820.5 832.167,820.5 831.5,820.5C 831.027,812.622 831.693,804.956 833.5,797.5C 832.041,797.567 830.708,797.234 829.5,796.5C 824.307,795.539 819.141,795.539 814,796.5C 814.542,806.14 815.042,815.807 815.5,825.5C 813.955,824.77 813.122,823.437 813,821.5C 812.5,811.839 812.334,802.172 812.5,792.5C 811.081,791.549 809.415,791.216 807.5,791.5C 807.167,791.5 806.833,791.5 806.5,791.5C 806.5,790.5 806.5,789.5 806.5,788.5C 807.236,786.771 808.57,785.771 810.5,785.5 Z"/></g>
<g><path style="opacity:1" fill="#bb7a12" d="M 837.5,797.5 C 841.5,797.5 845.5,797.5 849.5,797.5C 849.5,799.5 849.5,801.5 849.5,803.5C 847.821,803.715 846.821,803.048 846.5,801.5C 848.048,801.179 848.715,800.179 848.5,798.5C 845.167,798.5 841.833,798.5 838.5,798.5C 838.826,806.684 838.492,814.684 837.5,822.5C 837.5,814.167 837.5,805.833 837.5,797.5 Z"/></g>
<g><path style="opacity:1" fill="#a24503" d="M 876.5,825.5 C 875.833,825.833 875.167,826.167 874.5,826.5C 870.833,826.5 867.167,826.5 863.5,826.5C 863.5,816.833 863.5,807.167 863.5,797.5C 867.47,796.173 871.47,796.173 875.5,797.5C 876.498,806.81 876.832,816.143 876.5,825.5 Z"/></g>
<g><path style="opacity:1" fill="#e19d21" d="M 828.5,803.5 C 828.76,809.172 829.093,814.839 829.5,820.5C 828.833,820.833 828.167,821.167 827.5,821.5C 825.137,823.002 822.97,822.668 821,820.5C 820.5,814.175 820.334,807.842 820.5,801.5C 822.857,801.337 825.19,801.503 827.5,802C 828.056,802.383 828.389,802.883 828.5,803.5 Z"/></g>
<g><path style="opacity:1" fill="#fce13b" d="M 827.5,821.5 C 825.856,821.714 824.356,821.38 823,820.5C 822.469,814.829 821.969,809.162 821.5,803.5C 823.5,803.5 825.5,803.5 827.5,803.5C 827.5,809.5 827.5,815.5 827.5,821.5 Z"/></g>
<g><path style="opacity:1" fill="#ee9c20" d="M 829.5,796.5 C 825.131,796.467 820.798,796.8 816.5,797.5C 816.5,798.833 816.5,800.167 816.5,801.5C 816.5,808.167 816.5,814.833 816.5,821.5C 816.5,822.833 816.5,824.167 816.5,825.5C 816.167,825.5 815.833,825.5 815.5,825.5C 815.042,815.807 814.542,806.14 814,796.5C 819.141,795.539 824.307,795.539 829.5,796.5 Z"/></g>
<g><path style="opacity:1" fill="#ebb536" d="M 867.5,802.5 C 867.5,805.167 867.5,807.833 867.5,810.5C 869.167,810.5 870.833,810.5 872.5,810.5C 872.815,814.371 872.482,818.038 871.5,821.5C 869.833,822.833 868.167,822.833 866.5,821.5C 866.177,814.978 866.51,808.645 867.5,802.5 Z"/></g>
<g><path style="opacity:1" fill="#fee757" d="M 871.5,821.5 C 870.167,821.5 868.833,821.5 867.5,821.5C 867.187,818.753 867.52,816.086 868.5,813.5C 871.106,815.418 872.106,818.084 871.5,821.5 Z"/></g>
<g><path style="opacity:1" fill="#c88419" d="M 872.5,810.5 C 872.663,808.143 872.497,805.81 872,803.5C 870.644,802.62 869.144,802.286 867.5,802.5C 866.51,808.645 866.177,814.978 866.5,821.5C 865.509,815.021 865.176,808.354 865.5,801.5C 873.224,800.362 875.558,803.362 872.5,810.5 Z"/></g>
<g><path style="opacity:1" fill="#fee54b" d="M 867.5,802.5 C 869.144,802.286 870.644,802.62 872,803.5C 872.497,805.81 872.663,808.143 872.5,810.5C 870.833,810.5 869.167,810.5 867.5,810.5C 867.5,807.833 867.5,805.167 867.5,802.5 Z"/></g>
<g><path style="opacity:1" fill="#c96609" d="M 829.5,796.5 C 830.708,797.234 832.041,797.567 833.5,797.5C 831.693,804.956 831.027,812.622 831.5,820.5C 830.833,820.5 830.167,820.5 829.5,820.5C 829.093,814.839 828.76,809.172 828.5,803.5C 829.317,805.969 829.817,808.635 830,811.5C 830.772,807.11 830.606,802.777 829.5,798.5C 824.332,796.672 819.999,797.672 816.5,801.5C 816.5,800.167 816.5,798.833 816.5,797.5C 820.798,796.8 825.131,796.467 829.5,796.5 Z"/></g>
<g><path style="opacity:1" fill="#be4502" d="M 828.5,803.5 C 828.389,802.883 828.056,802.383 827.5,802C 825.19,801.503 822.857,801.337 820.5,801.5C 820.334,807.842 820.5,814.175 821,820.5C 822.97,822.668 825.137,823.002 827.5,821.5C 828.167,821.167 828.833,820.833 829.5,820.5C 830.167,820.5 830.833,820.5 831.5,820.5C 831.5,822.167 831.5,823.833 831.5,825.5C 826.833,825.5 822.167,825.5 817.5,825.5C 817.768,823.901 817.434,822.568 816.5,821.5C 816.5,814.833 816.5,808.167 816.5,801.5C 819.999,797.672 824.332,796.672 829.5,798.5C 830.606,802.777 830.772,807.11 830,811.5C 829.817,808.635 829.317,805.969 828.5,803.5 Z"/></g>
<g><path style="opacity:1" fill="#ad6a06" d="M 886.5,786.5 C 894.573,785.868 902.24,786.535 909.5,788.5C 877.167,788.5 844.833,788.5 812.5,788.5C 810.621,788.607 810.288,788.107 811.5,787C 836.498,786.5 861.498,786.333 886.5,786.5 Z"/></g>
<g><path style="opacity:1" fill="#c88b32" d="M 810.5,785.5 C 811.167,785.5 811.833,785.5 812.5,785.5C 837.339,785.169 862.006,785.502 886.5,786.5C 861.498,786.333 836.498,786.5 811.5,787C 810.288,788.107 810.621,788.607 812.5,788.5C 812.5,788.833 812.5,789.167 812.5,789.5C 811.5,789.5 810.5,789.5 809.5,789.5C 809.433,788.041 809.766,786.708 810.5,785.5 Z"/></g>
<g><path style="opacity:1" fill="#e3b35e" d="M 812.5,785.5 C 845.347,784.206 878.347,784.206 911.5,785.5C 911.5,786.5 911.5,787.5 911.5,788.5C 911.167,788.5 910.833,788.5 910.5,788.5C 910.167,788.5 909.833,788.5 909.5,788.5C 902.24,786.535 894.573,785.868 886.5,786.5C 862.006,785.502 837.339,785.169 812.5,785.5 Z"/></g>
<g><path style="opacity:1" fill="#fad68a" d="M 911.5,785.5 C 878.347,784.206 845.347,784.206 812.5,785.5C 811.833,785.5 811.167,785.5 810.5,785.5C 808.57,785.771 807.236,786.771 806.5,788.5C 806.286,786.856 806.62,785.356 807.5,784C 824.833,783.833 842.167,783.667 859.5,783.5C 877.18,783.5 894.513,784.167 911.5,785.5 Z"/></g>
<g><path style="opacity:1" fill="#747575" d="M 934.5,762.5 C 935.473,764.948 935.806,767.615 935.5,770.5C 935.5,774.5 935.5,778.5 935.5,782.5C 934.501,838.664 934.168,894.998 934.5,951.5C 934.167,951.5 933.833,951.5 933.5,951.5C 933.228,888.493 933.562,825.493 934.5,762.5 Z"/></g>
<g><path style="opacity:1" fill="#f0f7fa" d="M 782.5,838.5 C 783.496,853.658 783.83,868.991 783.5,884.5C 782.67,894.992 782.17,905.659 782,916.5C 781.667,914.5 781.333,912.5 781,910.5C 780.5,887.836 780.333,865.169 780.5,842.5C 780.66,840.847 781.326,839.514 782.5,838.5 Z"/></g>
<g><path style="opacity:1" fill="#99dedd" d="M 730.5,826.5 C 729.573,840.118 727.073,853.451 723,866.5C 712.352,886.465 700.685,905.798 688,924.5C 674.458,940.043 659.625,954.209 643.5,967C 641.975,968.009 640.308,968.509 638.5,968.5C 636.975,964.444 635.141,960.444 633,956.5C 619.22,942.402 602.386,936.069 582.5,937.5C 587.316,936.674 592.316,936.174 597.5,936C 598,935.5 598.5,935 599,934.5C 600.719,936.316 602.885,937.316 605.5,937.5C 625.869,925.655 645.535,912.822 664.5,899C 672.311,895.261 679.977,891.261 687.5,887C 700.945,878.221 712.445,867.388 722,854.5C 726.039,845.422 728.872,836.088 730.5,826.5 Z"/></g>
<g><path style="opacity:1" fill="#2b3639" d="M 786.5,870.5 C 786.5,895.5 786.5,920.5 786.5,945.5C 785.691,947.292 785.191,949.292 785,951.5C 784.5,936.17 784.333,920.837 784.5,905.5C 784.831,881.661 784.498,857.994 783.5,834.5C 783.987,833.527 784.487,832.527 785,831.5C 785.169,844.673 785.669,857.673 786.5,870.5 Z"/></g>
<g><path style="opacity:1" fill="#ebf1f4" d="M 757.5,861.5 C 757.833,861.5 758.167,861.5 758.5,861.5C 758.838,892.522 758.505,920.189 757.5,944.5C 756.5,944.5 755.5,944.5 754.5,944.5C 754.83,927.658 754.497,910.992 753.5,894.5C 753.5,884.167 753.5,873.833 753.5,863.5C 754.514,862.326 755.847,861.66 757.5,861.5 Z"/></g>
<g><path style="opacity:1" fill="#e1e7e6" d="M 747.5,866.5 C 749.161,879.969 750.161,893.636 750.5,907.5C 751.659,918.659 751.826,929.992 751,941.5C 750.626,942.416 750.126,943.25 749.5,944C 746.305,944.181 743.305,944.681 740.5,945.5C 721.569,947.685 702.569,948.685 683.5,948.5C 685.833,944.167 689.167,940.833 693.5,938.5C 707.653,940.941 717.987,935.941 724.5,923.5C 726.408,922.514 727.408,920.848 727.5,918.5C 727.5,917.5 727.5,916.5 727.5,915.5C 728.787,910.136 728.787,904.802 727.5,899.5C 725.572,897.219 724.572,894.553 724.5,891.5C 727.82,884.86 731.153,878.193 734.5,871.5C 738.739,869.546 743.072,867.879 747.5,866.5 Z"/></g>
<g><path style="opacity:1" fill="#191a1a" d="M 727.5,899.5 C 728.787,904.802 728.787,910.136 727.5,915.5C 726.778,915.918 726.278,916.584 726,917.5C 725.735,911.417 724.902,905.417 723.5,899.5C 723.833,898.833 724.167,898.167 724.5,897.5C 725.518,898.193 726.518,898.859 727.5,899.5 Z"/></g>
<g><path style="opacity:1" fill="#7a8386" d="M 783.5,834.5 C 784.498,857.994 784.831,881.661 784.5,905.5C 784.167,905.5 783.833,905.5 783.5,905.5C 783.5,898.5 783.5,891.5 783.5,884.5C 783.83,868.991 783.496,853.658 782.5,838.5C 782.833,837.167 783.167,835.833 783.5,834.5 Z"/></g>
<g><path style="opacity:1" fill="#a0aaae" d="M 747.5,866.5 C 747.842,865.662 748.508,865.328 749.5,865.5C 750.496,879.323 750.829,893.323 750.5,907.5C 750.161,893.636 749.161,879.969 747.5,866.5 Z"/></g>
<g><path style="opacity:1" fill="#9aa4a7" d="M 834.5,901.5 C 834.244,908.224 834.577,914.891 835.5,921.5C 834.883,921.389 834.383,921.056 834,920.5C 833.18,913.986 833.347,907.653 834.5,901.5 Z"/></g>
<g><path style="opacity:1" fill="#838986" d="M 724.5,891.5 C 724.572,894.553 725.572,897.219 727.5,899.5C 726.518,898.859 725.518,898.193 724.5,897.5C 724.167,898.167 723.833,898.833 723.5,899.5C 724.902,905.417 725.735,911.417 726,917.5C 726.278,916.584 726.778,915.918 727.5,915.5C 727.5,916.5 727.5,917.5 727.5,918.5C 726.21,919.058 725.377,920.058 725,921.5C 724.827,917.459 724.327,913.459 723.5,909.5C 722.831,911.631 722.165,913.631 721.5,915.5C 721.819,910.637 721.486,905.97 720.5,901.5C 720.196,900.85 719.863,900.183 719.5,899.5C 721.192,896.769 722.858,894.102 724.5,891.5 Z"/></g>
<g><path style="opacity:1" fill="#434f53" d="M 753.5,863.5 C 753.5,873.833 753.5,884.167 753.5,894.5C 753.5,910.833 753.5,927.167 753.5,943.5C 751.628,945.604 749.295,946.937 746.5,947.5C 746.611,946.883 746.944,946.383 747.5,946C 745.19,945.503 742.857,945.337 740.5,945.5C 743.305,944.681 746.305,944.181 749.5,944C 750.126,943.25 750.626,942.416 751,941.5C 751.826,929.992 751.659,918.659 750.5,907.5C 750.829,893.323 750.496,879.323 749.5,865.5C 750.514,864.326 751.847,863.66 753.5,863.5 Z"/></g>
<g><path style="opacity:1" fill="#232628" d="M 759.5,860.5 C 759.56,859.957 759.893,859.624 760.5,859.5C 761.5,892.493 761.833,925.493 761.5,958.5C 761.167,958.5 760.833,958.5 760.5,958.5C 760.832,925.662 760.498,892.996 759.5,860.5 Z"/></g>
<g><path style="opacity:1" fill="#b6c2be" d="M 727.5,918.5 C 727.408,920.848 726.408,922.514 724.5,923.5C 724.103,922.475 723.437,922.308 722.5,923C 717.344,932.578 709.344,936.912 698.5,936C 697.748,935.329 697.414,934.496 697.5,933.5C 698.124,931.246 699.457,929.579 701.5,928.5C 704.249,928.726 706.916,928.393 709.5,927.5C 710.524,928.853 711.857,929.52 713.5,929.5C 713.5,928.167 713.5,926.833 713.5,925.5C 715.5,925.167 717.5,924.833 719.5,924.5C 719.5,923.167 719.5,921.833 719.5,920.5C 719.893,918.716 720.559,917.05 721.5,915.5C 722.165,913.631 722.831,911.631 723.5,909.5C 724.327,913.459 724.827,917.459 725,921.5C 725.377,920.058 726.21,919.058 727.5,918.5 Z"/></g>
<g><path style="opacity:1" fill="#b8c1c7" d="M 758.5,861.5 C 759.167,893.833 759.833,926.167 760.5,958.5C 760.833,958.5 761.167,958.5 761.5,958.5C 762.449,962.657 763.116,966.99 763.5,971.5C 761.358,971.31 759.025,971.144 756.5,971C 754.881,970.764 753.881,969.931 753.5,968.5C 754.497,968.53 755.164,968.03 755.5,967C 755.006,965.538 754.673,964.038 754.5,962.5C 756.613,957.016 756.946,951.349 755.5,945.5C 754.335,946.491 753.168,947.491 752,948.5C 751.5,948.333 751,948.167 750.5,948C 752.141,946.871 753.141,945.371 753.5,943.5C 753.5,927.167 753.5,910.833 753.5,894.5C 754.497,910.992 754.83,927.658 754.5,944.5C 755.5,944.5 756.5,944.5 757.5,944.5C 758.505,920.189 758.838,892.522 758.5,861.5 Z"/></g>
<g><path style="opacity:1" fill="#3a4641" d="M 720.5,901.5 C 721.486,905.97 721.819,910.637 721.5,915.5C 720.559,917.05 719.893,918.716 719.5,920.5C 718.596,921.209 718.263,922.209 718.5,923.5C 717.5,923.5 716.5,923.5 715.5,923.5C 715.5,921.5 715.5,919.5 715.5,917.5C 716.644,913.352 716.644,909.352 715.5,905.5C 715.783,904.711 716.283,904.044 717,903.5C 717.494,905.134 717.66,906.801 717.5,908.5C 718.5,908.5 719.5,908.5 720.5,908.5C 720.5,906.167 720.5,903.833 720.5,901.5 Z"/></g>
<g><path style="opacity:1" fill="#2a3943" d="M 885.5,894.5 C 886.857,895.59 887.857,896.924 888.5,898.5C 892.302,911.27 888.969,921.936 878.5,930.5C 877.957,930.44 877.624,930.107 877.5,929.5C 880.144,928.259 880.977,926.259 880,923.5C 878.224,922.464 876.391,922.464 874.5,923.5C 876.507,921.161 878.507,918.828 880.5,916.5C 880.167,915.833 879.833,915.167 879.5,914.5C 878.185,916.316 876.685,917.983 875,919.5C 874.833,919 874.667,918.5 874.5,918C 878.924,912.647 881.258,906.48 881.5,899.5C 884.292,899.452 886.125,900.785 887,903.5C 887.251,900.406 886.751,897.406 885.5,894.5 Z"/></g>
<g><path style="opacity:1" fill="#0f1d25" d="M 872.5,883.5 C 878.372,885.374 882.706,889.041 885.5,894.5C 886.751,897.406 887.251,900.406 887,903.5C 886.125,900.785 884.292,899.452 881.5,899.5C 881.258,906.48 878.924,912.647 874.5,918C 874.667,918.5 874.833,919 875,919.5C 876.685,917.983 878.185,916.316 879.5,914.5C 879.833,915.167 880.167,915.833 880.5,916.5C 878.507,918.828 876.507,921.161 874.5,923.5C 868.493,925.991 862.16,926.991 855.5,926.5C 846.906,919.991 843.739,911.325 846,900.5C 848.707,894.726 853.207,891.226 859.5,890C 865.657,889.035 871.657,889.535 877.5,891.5C 878.5,893.167 879.833,894.5 881.5,895.5C 882.833,894.5 882.833,893.5 881.5,892.5C 878.853,889.843 875.853,887.677 872.5,886C 845.842,884.835 845.842,884.001 872.5,883.5 Z"/></g>
<g><path style="opacity:1" fill="#4f656f" d="M 874.5,895.5 C 875.222,895.918 875.722,896.584 876,897.5C 877.026,903.574 876.193,909.241 873.5,914.5C 872.163,915.315 871.163,916.482 870.5,918C 867.715,918.658 865.049,919.491 862.5,920.5C 862.238,919.022 862.571,917.689 863.5,916.5C 866.591,913.469 869.424,910.136 872,906.5C 872.167,906 872.333,905.5 872.5,905C 871.491,903.832 870.491,902.665 869.5,901.5C 870.246,900.264 870.579,898.93 870.5,897.5C 871.163,899.042 871.83,900.709 872.5,902.5C 873.635,900.293 874.301,897.96 874.5,895.5 Z"/></g>
<g><path style="opacity:1" fill="#1f3945" d="M 873.5,894.5 C 872.167,894.5 870.833,894.5 869.5,894.5C 869.263,895.791 869.596,896.791 870.5,897.5C 870.579,898.93 870.246,900.264 869.5,901.5C 870.491,902.665 871.491,903.832 872.5,905C 872.333,905.5 872.167,906 872,906.5C 869.424,910.136 866.591,913.469 863.5,916.5C 862.571,917.689 862.238,919.022 862.5,920.5C 865.049,919.491 867.715,918.658 870.5,918C 871.163,916.482 872.163,915.315 873.5,914.5C 873.318,917.703 871.652,919.536 868.5,920C 869.993,921.156 869.826,921.99 868,922.5C 863.904,922.272 859.737,922.105 855.5,922C 849.692,919.466 847.359,914.966 848.5,908.5C 847.688,897.646 852.688,892.979 863.5,894.5C 863.281,893.325 863.614,892.325 864.5,891.5C 867.662,892.365 870.662,893.365 873.5,894.5 Z"/></g>
<g><path style="opacity:1" fill="#9eb2bc" d="M 873.5,894.5 C 873.5,895.167 873.833,895.5 874.5,895.5C 874.301,897.96 873.635,900.293 872.5,902.5C 871.83,900.709 871.163,899.042 870.5,897.5C 869.596,896.791 869.263,895.791 869.5,894.5C 870.833,894.5 872.167,894.5 873.5,894.5 Z"/></g>
<g><path style="opacity:1" fill="#525252" d="M 945.5,815.5 C 946.222,860.503 946.889,905.67 947.5,951C 947.674,956.421 947.007,961.587 945.5,966.5C 945.5,916.167 945.5,865.833 945.5,815.5 Z"/></g>
<g><path style="opacity:1" fill="#d8dcd9" d="M 715.5,905.5 C 716.644,909.352 716.644,913.352 715.5,917.5C 712.881,920.119 710.215,922.785 707.5,925.5C 705.955,926.452 704.288,926.785 702.5,926.5C 707.084,919.668 711.417,912.668 715.5,905.5 Z"/></g>
<g><path style="opacity:1" fill="#272928" d="M 919.5,921.5 C 919.461,922.583 919.127,923.583 918.5,924.5C 919.325,925.386 920.325,925.719 921.5,925.5C 921.231,923.571 921.731,921.905 923,920.5C 923.498,923.817 923.665,927.15 923.5,930.5C 923.5,931.167 923.5,931.833 923.5,932.5C 924.242,934.594 924.909,936.761 925.5,939C 925.486,940.385 925.152,941.551 924.5,942.5C 923.5,942.5 922.5,942.5 921.5,942.5C 921.799,940.396 921.466,938.396 920.5,936.5C 919.571,937.689 919.238,939.022 919.5,940.5C 918.549,939.081 918.216,937.415 918.5,935.5C 919.5,935.5 920.5,935.5 921.5,935.5C 920.634,932.833 919.634,930.167 918.5,927.5C 917.702,931.384 916.036,932.051 913.5,929.5C 911.827,931.086 909.827,931.753 907.5,931.5C 907.5,930.167 907.5,928.833 907.5,927.5C 908.601,928.8 909.934,929.3 911.5,929C 913.973,927.598 913.973,926.098 911.5,924.5C 913.34,920.89 916.006,919.89 919.5,921.5 Z"/></g>
<g><path style="opacity:1" fill="#6e7b74" d="M 715.5,917.5 C 715.5,919.5 715.5,921.5 715.5,923.5C 716.5,923.5 717.5,923.5 718.5,923.5C 718.263,922.209 718.596,921.209 719.5,920.5C 719.5,921.833 719.5,923.167 719.5,924.5C 717.5,924.833 715.5,925.167 713.5,925.5C 713.5,926.833 713.5,928.167 713.5,929.5C 711.857,929.52 710.524,928.853 709.5,927.5C 706.916,928.393 704.249,928.726 701.5,928.5C 701.328,927.508 701.662,926.842 702.5,926.5C 704.288,926.785 705.955,926.452 707.5,925.5C 710.215,922.785 712.881,920.119 715.5,917.5 Z"/></g>
<g><path style="opacity:1" fill="#2c3f47" d="M 872.5,883.5 C 845.842,884.001 845.842,884.835 872.5,886C 875.853,887.677 878.853,889.843 881.5,892.5C 882.833,893.5 882.833,894.5 881.5,895.5C 879.833,894.5 878.5,893.167 877.5,891.5C 871.657,889.535 865.657,889.035 859.5,890C 853.207,891.226 848.707,894.726 846,900.5C 843.739,911.325 846.906,919.991 855.5,926.5C 850.801,925.659 846.134,925.659 841.5,926.5C 843.417,929.583 846.084,931.75 849.5,933C 854.769,934.106 860.103,934.773 865.5,935C 861.3,936.367 856.967,936.867 852.5,936.5C 844.648,933.982 838.981,928.982 835.5,921.5C 834.577,914.891 834.244,908.224 834.5,901.5C 835.148,899.914 835.648,898.247 836,896.5C 844.892,882.741 857.059,878.408 872.5,883.5 Z"/></g>
<g><path style="opacity:1" fill="#979a99" d="M 923.5,930.5 C 923.665,927.15 923.498,923.817 923,920.5C 921.731,921.905 921.231,923.571 921.5,925.5C 920.325,925.719 919.325,925.386 918.5,924.5C 919.127,923.583 919.461,922.583 919.5,921.5C 920.404,920.791 920.737,919.791 920.5,918.5C 921.833,918.5 923.167,918.5 924.5,918.5C 924.817,922.702 924.483,926.702 923.5,930.5 Z"/></g>
<g><path style="opacity:1" fill="#a9b1b6" d="M 779.5,843.5 C 779.631,874.338 779.298,905.172 778.5,936C 778.667,943.167 778.833,950.333 779,957.5C 780.54,959.955 780.874,962.621 780,965.5C 779.257,963.355 778.424,963.189 777.5,965C 777.989,966.138 778.322,967.305 778.5,968.5C 777.883,968.389 777.383,968.056 777,967.5C 776.333,927.167 776.333,886.833 777,846.5C 777.852,845.429 778.685,844.429 779.5,843.5 Z"/></g>
<g><path style="opacity:1" fill="#2c2d2d" d="M 907.5,927.5 C 906.033,924.742 905.367,925.075 905.5,928.5C 904.167,928.5 902.833,928.5 901.5,928.5C 901.5,930.5 901.5,932.5 901.5,934.5C 899.948,938.038 898.948,941.704 898.5,945.5C 896.801,945.66 895.134,945.494 893.5,945C 892.941,944.275 892.608,943.442 892.5,942.5C 894.654,936.032 896.987,929.699 899.5,923.5C 899.5,922.167 899.5,920.833 899.5,919.5C 901.685,919.888 903.518,920.888 905,922.5C 906.44,921.852 907.94,921.519 909.5,921.5C 908.833,923.5 908.167,925.5 907.5,927.5 Z"/></g>
<g><path style="opacity:1" fill="#3c525e" d="M 878.5,930.5 C 877.014,932.619 875.014,934.119 872.5,935C 866.009,937.128 859.342,937.961 852.5,937.5C 852.5,937.167 852.5,936.833 852.5,936.5C 856.967,936.867 861.3,936.367 865.5,935C 860.103,934.773 854.769,934.106 849.5,933C 846.084,931.75 843.417,929.583 841.5,926.5C 846.134,925.659 850.801,925.659 855.5,926.5C 862.16,926.991 868.493,925.991 874.5,923.5C 876.391,922.464 878.224,922.464 880,923.5C 880.977,926.259 880.144,928.259 877.5,929.5C 877.624,930.107 877.957,930.44 878.5,930.5 Z"/></g>
<g><path style="opacity:1" fill="#848b8f" d="M 757.5,861.5 C 757.842,860.662 758.508,860.328 759.5,860.5C 760.498,892.996 760.832,925.662 760.5,958.5C 759.833,926.167 759.167,893.833 758.5,861.5C 758.167,861.5 757.833,861.5 757.5,861.5 Z"/></g>
<g><path style="opacity:1" fill="#111212" d="M 907.5,927.5 C 907.5,928.833 907.5,930.167 907.5,931.5C 909.827,931.753 911.827,931.086 913.5,929.5C 916.036,932.051 917.702,931.384 918.5,927.5C 919.634,930.167 920.634,932.833 921.5,935.5C 920.5,935.5 919.5,935.5 918.5,935.5C 918.216,937.415 918.549,939.081 919.5,940.5C 919.179,942.048 918.179,942.715 916.5,942.5C 916.808,940.076 916.474,937.743 915.5,935.5C 912.682,936.929 911.349,939.262 911.5,942.5C 910.503,942.53 909.836,942.03 909.5,941C 910.645,938.801 910.645,936.635 909.5,934.5C 908.833,937.167 908.167,939.833 907.5,942.5C 906.833,938.687 906.166,935.021 905.5,931.5C 905.5,930.5 905.5,929.5 905.5,928.5C 905.367,925.075 906.033,924.742 907.5,927.5 Z"/></g>
<g><path style="opacity:1" fill="#a1a2a2" d="M 905.5,928.5 C 905.5,929.5 905.5,930.5 905.5,931.5C 905.5,935.5 905.5,939.5 905.5,943.5C 907.5,943.5 909.5,943.5 911.5,943.5C 909.393,944.468 907.059,944.802 904.5,944.5C 904.827,939.456 904.494,934.456 903.5,929.5C 902.83,931.291 902.163,932.958 901.5,934.5C 901.5,932.5 901.5,930.5 901.5,928.5C 902.833,928.5 904.167,928.5 905.5,928.5 Z"/></g>
<g><path style="opacity:1" fill="#777877" d="M 804.5,934.5 C 805.5,934.5 806.5,934.5 807.5,934.5C 807.5,935.5 807.5,936.5 807.5,937.5C 806.432,938.434 805.099,938.768 803.5,938.5C 803.433,937.041 803.766,935.708 804.5,934.5 Z"/></g>
<g><path style="opacity:1" fill="#616d69" d="M 724.5,923.5 C 717.987,935.941 707.653,940.941 693.5,938.5C 694.08,936.251 695.413,934.585 697.5,933.5C 697.414,934.496 697.748,935.329 698.5,936C 709.344,936.912 717.344,932.578 722.5,923C 723.437,922.308 724.103,922.475 724.5,923.5 Z"/></g>
<g><path style="opacity:1" fill="#474848" d="M 905.5,931.5 C 906.166,935.021 906.833,938.687 907.5,942.5C 908.167,939.833 908.833,937.167 909.5,934.5C 910.645,936.635 910.645,938.801 909.5,941C 909.836,942.03 910.503,942.53 911.5,942.5C 911.5,942.833 911.5,943.167 911.5,943.5C 909.5,943.5 907.5,943.5 905.5,943.5C 905.5,939.5 905.5,935.5 905.5,931.5 Z"/></g>
<g><path style="opacity:1" fill="#a2a4a3" d="M 919.5,940.5 C 919.238,939.022 919.571,937.689 920.5,936.5C 921.466,938.396 921.799,940.396 921.5,942.5C 922.5,942.5 923.5,942.5 924.5,942.5C 923.666,943.748 922.333,944.415 920.5,944.5C 919.167,944.333 917.833,944.167 916.5,944C 915.897,942.175 915.23,940.341 914.5,938.5C 913.304,940.145 912.304,941.811 911.5,943.5C 911.5,943.167 911.5,942.833 911.5,942.5C 911.349,939.262 912.682,936.929 915.5,935.5C 916.474,937.743 916.808,940.076 916.5,942.5C 918.179,942.715 919.179,942.048 919.5,940.5 Z"/></g>
<g><path style="opacity:1" fill="#242f32" d="M 740.5,945.5 C 742.857,945.337 745.19,945.503 747.5,946C 746.944,946.383 746.611,946.883 746.5,947.5C 738.414,948.604 730.414,949.604 722.5,950.5C 708.816,951.723 695.149,951.723 681.5,950.5C 681.833,949.5 682.5,948.833 683.5,948.5C 702.569,948.685 721.569,947.685 740.5,945.5 Z"/></g>
<g><path style="opacity:1" fill="#91999a" d="M 933.5,951.5 C 933.833,951.5 934.167,951.5 934.5,951.5C 934.5,952.5 934.5,953.5 934.5,954.5C 904.834,954.877 875.167,955.21 845.5,955.5C 825.66,955.83 805.993,955.497 786.5,954.5C 820.502,954.667 854.502,954.5 888.5,954C 903.867,954.154 918.867,953.321 933.5,951.5 Z"/></g>
<g><path style="opacity:1" fill="#313737" d="M 935.5,782.5 C 935.333,840.168 935.5,897.834 936,955.5C 936.167,898.999 936.667,842.665 937.5,786.5C 937.5,843.5 937.5,900.5 937.5,957.5C 936.5,957.5 935.5,957.5 934.5,957.5C 926.833,957.5 919.167,957.5 911.5,957.5C 898.5,957.5 885.5,957.5 872.5,957.5C 861.833,957.5 851.167,957.5 840.5,957.5C 842.167,956.833 843.833,956.167 845.5,955.5C 875.167,955.21 904.834,954.877 934.5,954.5C 934.5,953.5 934.5,952.5 934.5,951.5C 934.168,894.998 934.501,838.664 935.5,782.5 Z"/></g>
<g><path style="opacity:1" fill="#d4b788" d="M 623.5,965.5 C 622.691,966.469 621.691,967.302 620.5,968C 609.833,968.667 599.167,968.667 588.5,968C 583.242,966.859 578.242,965.025 573.5,962.5C 572.583,963.127 571.583,963.461 570.5,963.5C 575.271,959.231 579.938,954.731 584.5,950C 600.255,948.554 613.255,953.721 623.5,965.5 Z"/></g>
<g><path style="opacity:1" fill="#a3b6c2" d="M 753.5,943.5 C 753.141,945.371 752.141,946.871 750.5,948C 751,948.167 751.5,948.333 752,948.5C 753.168,947.491 754.335,946.491 755.5,945.5C 756.946,951.349 756.613,957.016 754.5,962.5C 754.673,964.038 755.006,965.538 755.5,967C 755.164,968.03 754.497,968.53 753.5,968.5C 752.659,966.621 752.325,964.621 752.5,962.5C 750.217,962.608 748.217,963.441 746.5,965C 724.55,967.285 702.55,967.951 680.5,967C 679.615,962.374 677.448,961.541 674,964.5C 673.545,967.854 673.045,971.187 672.5,974.5C 686.833,974.5 701.167,974.5 715.5,974.5C 702.01,975.496 688.344,975.829 674.5,975.5C 673.178,975.67 672.011,975.337 671,974.5C 670.166,970.998 669.333,967.498 668.5,964C 672.324,959.01 676.657,954.51 681.5,950.5C 695.149,951.723 708.816,951.723 722.5,950.5C 730.414,949.604 738.414,948.604 746.5,947.5C 749.295,946.937 751.628,945.604 753.5,943.5 Z"/></g>
<g><path style="opacity:1" fill="#bfd0d8" d="M 722.5,950.5 C 726.846,950.334 731.179,950.501 735.5,951C 730.351,952.916 725.017,953.916 719.5,954C 707.486,954.833 695.486,954.666 683.5,953.5C 695.82,952.667 708.153,952.167 720.5,952C 721.416,951.722 722.082,951.222 722.5,950.5 Z"/></g>
<g><path style="opacity:1" fill="#374142" d="M 786.5,953.5 C 786.5,953.833 786.5,954.167 786.5,954.5C 805.993,955.497 825.66,955.83 845.5,955.5C 843.833,956.167 842.167,956.833 840.5,957.5C 821.833,957.5 803.167,957.5 784.5,957.5C 784.157,955.517 784.824,954.183 786.5,953.5 Z"/></g>
<g><path style="opacity:1" fill="#5b6769" d="M 783.5,905.5 C 783.833,905.5 784.167,905.5 784.5,905.5C 784.333,920.837 784.5,936.17 785,951.5C 785.191,949.292 785.691,947.292 786.5,945.5C 786.5,946.5 786.5,947.5 786.5,948.5C 786.5,950.167 786.5,951.833 786.5,953.5C 784.824,954.183 784.157,955.517 784.5,957.5C 803.167,957.5 821.833,957.5 840.5,957.5C 851.167,957.5 861.833,957.5 872.5,957.5C 843.005,958.498 813.338,958.831 783.5,958.5C 783.5,948.833 783.5,939.167 783.5,929.5C 783.5,921.5 783.5,913.5 783.5,905.5 Z"/></g>
<g><path style="opacity:1" fill="#2b6563" d="M 392.5,958.5 C 394.5,959.833 396.167,961.5 397.5,963.5C 394.833,962.833 393.167,961.167 392.5,958.5 Z"/></g>
<g><path style="opacity:1" fill="#b1c0c5" d="M 783.5,929.5 C 783.5,939.167 783.5,948.833 783.5,958.5C 813.338,958.831 843.005,958.498 872.5,957.5C 885.5,957.5 898.5,957.5 911.5,957.5C 884.996,958.562 858.329,959.562 831.5,960.5C 836.833,961.167 842.167,961.833 847.5,962.5C 843.541,963.327 839.541,963.827 835.5,964C 857.147,965.166 878.814,965.833 900.5,966C 902.5,966.333 904.5,966.667 906.5,967C 905.5,967.333 904.5,967.667 903.5,968C 871.835,968.5 840.168,968.667 808.5,968.5C 801.5,968.5 794.5,968.5 787.5,968.5C 787.357,966.738 787.691,965.071 788.5,963.5C 786.293,962.365 783.96,961.699 781.5,961.5C 782.099,950.691 782.765,940.024 783.5,929.5 Z"/></g>
<g><path style="opacity:1" fill="#b8c2c5" d="M 911.5,957.5 C 919.167,957.5 926.833,957.5 934.5,957.5C 937.059,958.922 939.393,960.755 941.5,963C 941.095,963.945 940.428,964.612 939.5,965C 937.527,965.495 935.527,965.662 933.5,965.5C 933.297,967.39 933.963,968.89 935.5,970C 937.985,969.919 940.319,970.086 942.5,970.5C 941.524,971.815 940.524,973.148 939.5,974.5C 914.842,975.5 890.176,975.833 865.5,975.5C 889.67,974.833 914.003,974.167 938.5,973.5C 936.345,972.59 934.345,971.423 932.5,970C 890.998,969.833 849.665,969.333 808.5,968.5C 840.168,968.667 871.835,968.5 903.5,968C 904.5,967.667 905.5,967.333 906.5,967C 904.5,966.667 902.5,966.333 900.5,966C 878.814,965.833 857.147,965.166 835.5,964C 839.541,963.827 843.541,963.327 847.5,962.5C 842.167,961.833 836.833,961.167 831.5,960.5C 858.329,959.562 884.996,958.562 911.5,957.5 Z"/></g>
<g><path style="opacity:1" fill="#c8d1d2" d="M 780.5,842.5 C 780.333,865.169 780.5,887.836 781,910.5C 781.333,912.5 781.667,914.5 782,916.5C 782.17,905.659 782.67,894.992 783.5,884.5C 783.5,891.5 783.5,898.5 783.5,905.5C 783.5,913.5 783.5,921.5 783.5,929.5C 782.765,940.024 782.099,950.691 781.5,961.5C 783.96,961.699 786.293,962.365 788.5,963.5C 787.691,965.071 787.357,966.738 787.5,968.5C 794.5,968.5 801.5,968.5 808.5,968.5C 849.665,969.333 890.998,969.833 932.5,970C 934.345,971.423 936.345,972.59 938.5,973.5C 914.003,974.167 889.67,974.833 865.5,975.5C 837.831,975.667 810.165,975.5 782.5,975C 780.768,973.028 779.435,970.861 778.5,968.5C 778.322,967.305 777.989,966.138 777.5,965C 778.424,963.189 779.257,963.355 780,965.5C 780.874,962.621 780.54,959.955 779,957.5C 778.833,950.333 778.667,943.167 778.5,936C 779.298,905.172 779.631,874.338 779.5,843.5C 779.5,842.833 779.833,842.5 780.5,842.5 Z"/></g>
<g><path style="opacity:1" fill="#a28b63" d="M 623.5,965.5 C 625.362,968.566 626.695,971.9 627.5,975.5C 613.088,988.906 596.421,992.406 577.5,986C 571.755,984.474 567.089,981.474 563.5,977C 563.484,971.208 565.817,966.708 570.5,963.5C 571.583,963.461 572.583,963.127 573.5,962.5C 578.242,965.025 583.242,966.859 588.5,968C 599.167,968.667 609.833,968.667 620.5,968C 621.691,967.302 622.691,966.469 623.5,965.5 Z"/></g>
<g><path style="opacity:1" fill="#e6f0ef" d="M 753.5,968.5 C 753.881,969.931 754.881,970.764 756.5,971C 759.025,971.144 761.358,971.31 763.5,971.5C 764.167,971.5 764.5,971.833 764.5,972.5C 748.534,974.485 732.201,975.152 715.5,974.5C 701.167,974.5 686.833,974.5 672.5,974.5C 673.045,971.187 673.545,967.854 674,964.5C 677.448,961.541 679.615,962.374 680.5,967C 702.55,967.951 724.55,967.285 746.5,965C 748.217,963.441 750.217,962.608 752.5,962.5C 752.325,964.621 752.659,966.621 753.5,968.5 Z"/></g>
<g><path style="opacity:1" fill="#4d4f50" d="M 764.5,972.5 C 765.404,973.209 765.737,974.209 765.5,975.5C 734.999,976.243 704.666,976.243 674.5,975.5C 688.344,975.829 702.01,975.496 715.5,974.5C 732.201,975.152 748.534,974.485 764.5,972.5 Z"/></g>
<g><path style="opacity:1" fill="#aec4d4" d="M 377.5,970.5 C 379.5,970.5 381.5,970.5 383.5,970.5C 389.561,974.382 395.227,978.882 400.5,984C 416.008,993.589 432.341,1001.26 449.5,1007C 453.152,1007.5 456.818,1007.67 460.5,1007.5C 461.952,1008.3 463.618,1008.8 465.5,1009C 477.5,1009.67 489.5,1009.67 501.5,1009C 502.737,1008.77 503.737,1008.27 504.5,1007.5C 514.135,1005.61 523.802,1003.77 533.5,1002C 545.686,992.514 558.686,991.014 572.5,997.5C 574.838,999.04 577.505,999.706 580.5,999.5C 590.12,1000.61 599.786,1000.78 609.5,1000C 620.833,996.678 630.499,990.845 638.5,982.5C 643.201,981.268 647.534,979.268 651.5,976.5C 654.172,984.002 659.506,987.836 667.5,988C 701.844,988.763 736.177,988.43 770.5,987C 771.5,986.5 772.5,986 773.5,985.5C 774.912,986.806 776.579,987.64 778.5,988C 793.211,988.199 807.878,988.699 822.5,989.5C 828.857,992.019 835.19,994.852 841.5,998C 843.293,1000.8 845.46,1003.3 848,1005.5C 848.79,1008.63 848.457,1011.63 847,1014.5C 842.147,1018.17 836.981,1021.17 831.5,1023.5C 627.833,1023.5 424.167,1023.5 220.5,1023.5C 219.432,1022.57 218.099,1022.23 216.5,1022.5C 216.158,1021.66 215.492,1021.33 214.5,1021.5C 214.158,1020.66 213.492,1020.33 212.5,1020.5C 212.158,1019.66 211.492,1019.33 210.5,1019.5C 210.158,1018.66 209.492,1018.33 208.5,1018.5C 207.738,1016.74 206.404,1015.74 204.5,1015.5C 204.573,1013.97 203.906,1012.97 202.5,1012.5C 202.5,1010.17 202.5,1007.83 202.5,1005.5C 206.758,999.193 212.425,994.527 219.5,991.5C 221.153,991.34 222.486,990.674 223.5,989.5C 224.791,989.737 225.791,989.404 226.5,988.5C 233.023,987.201 239.357,985.534 245.5,983.5C 248.059,983.802 250.393,983.468 252.5,982.5C 255.059,982.802 257.393,982.468 259.5,981.5C 264.391,981.468 269.057,980.801 273.5,979.5C 276.187,979.664 278.854,979.497 281.5,979C 282.584,976.175 283.751,976.008 285,978.5C 290.591,976.476 296.258,976.142 302,977.5C 302.464,976.906 302.631,976.239 302.5,975.5C 307.363,975.819 312.03,975.486 316.5,974.5C 320.371,974.815 324.038,974.482 327.5,973.5C 332.032,973.818 336.366,973.485 340.5,972.5C 348.019,972.825 355.352,972.492 362.5,971.5C 367.695,971.821 372.695,971.487 377.5,970.5 Z"/></g>
<g><path style="opacity:1" fill="#57626a" d="M 572.5,997.5 C 575.428,997.565 578.095,998.232 580.5,999.5C 577.505,999.706 574.838,999.04 572.5,997.5 Z"/></g>
<g><path style="opacity:1" fill="#68767e" d="M 460.5,1007.5 C 475.174,1008.56 489.841,1008.56 504.5,1007.5C 503.737,1008.27 502.737,1008.77 501.5,1009C 489.5,1009.67 477.5,1009.67 465.5,1009C 463.618,1008.8 461.952,1008.3 460.5,1007.5 Z"/></g>
<g><path style="opacity:0.008" fill="#adc0cd" d="M 202.5,1012.5 C 201.833,1013.17 201.833,1013.17 202.5,1012.5 Z"/></g>
<g><path style="opacity:0.004" fill="#b7cad5" d="M 203.5,1015.5 C 202.833,1014.17 202.833,1014.17 203.5,1015.5 Z"/></g>
<g><path style="opacity:0.008" fill="#b9cad3" d="M 203.5,1015.5 C 203.833,1015.5 204.167,1015.5 204.5,1015.5C 204.315,1016.17 203.981,1016.17 203.5,1015.5 Z"/></g>
<g><path style="opacity:0.016" fill="#b5c7d0" d="M 208.5,1018.5 C 207.833,1019.17 207.833,1019.17 208.5,1018.5 Z"/></g>
<g><path style="opacity:0.016" fill="#a7bac5" d="M 210.5,1019.5 C 209.833,1020.17 209.833,1020.17 210.5,1019.5 Z"/></g>
<g><path style="opacity:0.012" fill="#a6b8c3" d="M 212.5,1020.5 C 211.833,1021.17 211.833,1021.17 212.5,1020.5 Z"/></g>
<g><path style="opacity:0.008" fill="#aabcc6" d="M 214.5,1021.5 C 213.833,1022.17 213.833,1022.17 214.5,1021.5 Z"/></g>
<g><path style="opacity:0.004" fill="#b5c5cb" d="M 216.5,1022.5 C 216.5,1022.83 216.5,1023.17 216.5,1023.5C 215.83,1023.02 215.83,1022.69 216.5,1022.5 Z"/></g>
</svg>
